<?xml version="1.0" encoding="UTF-8" standalone="no"?>
<!DOCTYPE svg PUBLIC "-//W3C//DTD SVG 1.1//EN"
 "http://www.w3.org/Graphics/SVG/1.1/DTD/svg11.dtd">
<!-- Generated by graphviz version 8.1.0 (0)
 -->
<!-- Title: snakemake_dag Pages: 1 -->
<svg width="2179pt" height="1075pt"
 viewBox="0.00 0.00 2179.12 1075.00" xmlns="http://www.w3.org/2000/svg" xmlns:xlink="http://www.w3.org/1999/xlink">
<g id="graph0" class="graph" transform="scale(1 1) rotate(0) translate(4 1071)">
<title>snakemake_dag</title>
<polygon fill="white" stroke="none" points="-4,4 -4,-1071 2175.12,-1071 2175.12,4 -4,4"/>
<!-- 0 -->
<g id="node1" class="node">
<title>0</title>
<path fill="none" stroke="#56d873" stroke-width="2" d="M1329,-36C1329,-36 1299,-36 1299,-36 1293,-36 1287,-30 1287,-24 1287,-24 1287,-12 1287,-12 1287,-6 1293,0 1299,0 1299,0 1329,0 1329,0 1335,0 1341,-6 1341,-12 1341,-12 1341,-24 1341,-24 1341,-30 1335,-36 1329,-36"/>
<text text-anchor="middle" x="1314" y="-14.12" font-family="sans" font-size="10.00">all</text>
</g>
<!-- 1 -->
<g id="node2" class="node">
<title>1</title>
<path fill="none" stroke="#d87d56" stroke-width="2" d="M231,-108C231,-108 201,-108 201,-108 195,-108 189,-102 189,-96 189,-96 189,-84 189,-84 189,-78 195,-72 201,-72 201,-72 231,-72 231,-72 237,-72 243,-78 243,-84 243,-84 243,-96 243,-96 243,-102 237,-108 231,-108"/>
<text text-anchor="middle" x="216" y="-86.12" font-family="sans" font-size="10.00">export</text>
</g>
<!-- 1&#45;&gt;0 -->
<g id="edge1" class="edge">
<title>1&#45;&gt;0</title>
<path fill="none" stroke="grey" stroke-width="2" d="M243.91,-74.55C246.6,-73.55 249.32,-72.67 252,-72 450.87,-22.17 1104.14,-18.91 1273.57,-18.92"/>
<polygon fill="grey" stroke="grey" stroke-width="2" points="1273.47,-22.42 1283.47,-18.93 1273.48,-15.42 1273.47,-22.42"/>
</g>
<!-- 2 -->
<g id="node3" class="node">
<title>2</title>
<path fill="none" stroke="#d8bc56" stroke-width="2" d="M397,-180C397,-180 367,-180 367,-180 361,-180 355,-174 355,-168 355,-168 355,-156 355,-156 355,-150 361,-144 367,-144 367,-144 397,-144 397,-144 403,-144 409,-150 409,-156 409,-156 409,-168 409,-168 409,-174 403,-180 397,-180"/>
<text text-anchor="middle" x="382" y="-158.12" font-family="sans" font-size="10.00">quantize</text>
</g>
<!-- 2&#45;&gt;1 -->
<g id="edge18" class="edge">
<title>2&#45;&gt;1</title>
<path fill="none" stroke="grey" stroke-width="2" d="M354.18,-150.16C330.1,-140.68 294.14,-126.25 255.39,-109.39"/>
<polygon fill="grey" stroke="grey" stroke-width="2" points="256.4,-106.14 245.84,-105.33 253.59,-112.55 256.4,-106.14"/>
</g>
<!-- 57 -->
<g id="node58" class="node">
<title>57</title>
<path fill="none" stroke="#56a2d8" stroke-width="2" d="M412.62,-108C412.62,-108 355.38,-108 355.38,-108 349.38,-108 343.38,-102 343.38,-96 343.38,-96 343.38,-84 343.38,-84 343.38,-78 349.38,-72 355.38,-72 355.38,-72 412.62,-72 412.62,-72 418.62,-72 424.62,-78 424.62,-84 424.62,-84 424.62,-96 424.62,-96 424.62,-102 418.62,-108 412.62,-108"/>
<text text-anchor="middle" x="384" y="-86.12" font-family="sans" font-size="10.00">eval_quantized</text>
</g>
<!-- 2&#45;&gt;57 -->
<g id="edge133" class="edge">
<title>2&#45;&gt;57</title>
<path fill="none" stroke="grey" stroke-width="2" d="M382.5,-143.34C382.69,-136.75 382.91,-129.08 383.12,-121.67"/>
<polygon fill="grey" stroke="grey" stroke-width="2" points="386.7,-122 383.49,-111.9 379.7,-121.8 386.7,-122"/>
</g>
<!-- 58 -->
<g id="node59" class="node">
<title>58</title>
<path fill="none" stroke="#56a2d8" stroke-width="2" d="M518.62,-108C518.62,-108 461.38,-108 461.38,-108 455.38,-108 449.38,-102 449.38,-96 449.38,-96 449.38,-84 449.38,-84 449.38,-78 455.38,-72 461.38,-72 461.38,-72 518.62,-72 518.62,-72 524.62,-72 530.62,-78 530.62,-84 530.62,-84 530.62,-96 530.62,-96 530.62,-102 524.62,-108 518.62,-108"/>
<text text-anchor="middle" x="490" y="-86.12" font-family="sans" font-size="10.00">eval_quantized</text>
</g>
<!-- 2&#45;&gt;58 -->
<g id="edge138" class="edge">
<title>2&#45;&gt;58</title>
<path fill="none" stroke="grey" stroke-width="2" d="M409.53,-143.15C422.35,-134.84 437.82,-124.82 451.75,-115.79"/>
<polygon fill="grey" stroke="grey" stroke-width="2" points="454.03,-118.19 460.52,-109.81 450.22,-112.31 454.03,-118.19"/>
</g>
<!-- 3 -->
<g id="node4" class="node">
<title>3</title>
<path fill="none" stroke="#56d85b" stroke-width="2" d="M302,-252C302,-252 154,-252 154,-252 148,-252 142,-246 142,-240 142,-240 142,-228 142,-228 142,-222 148,-216 154,-216 154,-216 302,-216 302,-216 308,-216 314,-222 314,-228 314,-228 314,-240 314,-240 314,-246 308,-252 302,-252"/>
<text text-anchor="middle" x="228" y="-235.75" font-family="sans" font-size="10.00">marian</text>
<text text-anchor="middle" x="228" y="-224.5" font-family="sans" font-size="10.00">marian_type: browsermt&#45;marian&#45;dev</text>
</g>
<!-- 3&#45;&gt;1 -->
<g id="edge21" class="edge">
<title>3&#45;&gt;1</title>
<path fill="none" stroke="grey" stroke-width="2" d="M226.48,-215.02C224.5,-191.54 220.99,-150.11 218.59,-121.64"/>
<polygon fill="grey" stroke="grey" stroke-width="2" points="221.84,-121.51 217.51,-111.84 214.86,-122.1 221.84,-121.51"/>
</g>
<!-- 3&#45;&gt;2 -->
<g id="edge22" class="edge">
<title>3&#45;&gt;2</title>
<path fill="none" stroke="grey" stroke-width="2" d="M267.26,-215.15C290.37,-204.65 319.52,-191.4 342.65,-180.89"/>
<polygon fill="grey" stroke="grey" stroke-width="2" points="344.81,-183.84 352.47,-176.52 341.91,-177.47 344.81,-183.84"/>
</g>
<!-- 3&#45;&gt;57 -->
<g id="edge131" class="edge">
<title>3&#45;&gt;57</title>
<path fill="none" stroke="grey" stroke-width="2" d="M241.23,-215.03C255.66,-196.11 280.06,-166.07 305,-144 316.48,-133.84 330.02,-124.09 342.62,-115.77"/>
<polygon fill="grey" stroke="grey" stroke-width="2" points="344.85,-118.21 351.37,-109.86 341.07,-112.32 344.85,-118.21"/>
</g>
<!-- 3&#45;&gt;58 -->
<g id="edge136" class="edge">
<title>3&#45;&gt;58</title>
<path fill="none" stroke="grey" stroke-width="2" d="M254.41,-215.12C268.96,-205.08 287.21,-192.16 303,-180 322.75,-164.8 324.43,-156.49 346,-144 361.86,-134.82 402.27,-120.19 436.26,-108.63"/>
<polygon fill="grey" stroke="grey" stroke-width="2" points="438.08,-111.04 446.44,-104.53 435.84,-104.4 438.08,-111.04"/>
</g>
<!-- 4 -->
<g id="node5" class="node">
<title>4</title>
<path fill="none" stroke="#5692d8" stroke-width="2" d="M269.62,-396C269.62,-396 230.38,-396 230.38,-396 224.38,-396 218.38,-390 218.38,-384 218.38,-384 218.38,-372 218.38,-372 218.38,-366 224.38,-360 230.38,-360 230.38,-360 269.62,-360 269.62,-360 275.62,-360 281.62,-366 281.62,-372 281.62,-372 281.62,-384 281.62,-384 281.62,-390 275.62,-396 269.62,-396"/>
<text text-anchor="middle" x="250" y="-374.12" font-family="sans" font-size="10.00">alignments</text>
</g>
<!-- 4&#45;&gt;1 -->
<g id="edge19" class="edge">
<title>4&#45;&gt;1</title>
<path fill="none" stroke="grey" stroke-width="2" d="M217.55,-375.86C182.02,-372.67 126.55,-361.55 100,-324 53.81,-258.68 56.75,-211.3 100,-144 116.61,-118.15 149.31,-104.75 175.76,-97.9"/>
<polygon fill="grey" stroke="grey" stroke-width="2" points="177.2,-100.7 186.15,-95.04 175.62,-93.88 177.2,-100.7"/>
</g>
<!-- 4&#45;&gt;2 -->
<g id="edge23" class="edge">
<title>4&#45;&gt;2</title>
<path fill="none" stroke="grey" stroke-width="2" d="M258.15,-359.13C266.76,-340.81 281.12,-311.72 296,-288 306.63,-271.06 311.47,-268.34 323,-252 337.03,-232.12 352.18,-209.23 363.62,-191.64"/>
<polygon fill="grey" stroke="grey" stroke-width="2" points="367.05,-193.23 369.55,-182.94 361.17,-189.43 367.05,-193.23"/>
</g>
<!-- 36 -->
<g id="node37" class="node">
<title>36</title>
<path fill="none" stroke="#56d8a9" stroke-width="2" d="M717,-252C717,-252 653,-252 653,-252 647,-252 641,-246 641,-240 641,-240 641,-228 641,-228 641,-222 647,-216 653,-216 653,-216 717,-216 717,-216 723,-216 729,-222 729,-228 729,-228 729,-240 729,-240 729,-246 723,-252 717,-252"/>
<text text-anchor="middle" x="685" y="-230.12" font-family="sans" font-size="10.00">finetune_student</text>
</g>
<!-- 4&#45;&gt;36 -->
<g id="edge80" class="edge">
<title>4&#45;&gt;36</title>
<path fill="none" stroke="grey" stroke-width="2" d="M282.3,-361.52C329.59,-339.02 415.55,-298.8 448,-288 507.92,-268.06 578.84,-253.31 627.39,-244.51"/>
<polygon fill="grey" stroke="grey" stroke-width="2" points="628.92,-247.43 638.15,-242.23 627.69,-240.54 628.92,-247.43"/>
</g>
<!-- 37 -->
<g id="node38" class="node">
<title>37</title>
<path fill="none" stroke="#56c9d8" stroke-width="2" d="M763.12,-324C763.12,-324 714.88,-324 714.88,-324 708.88,-324 702.88,-318 702.88,-312 702.88,-312 702.88,-300 702.88,-300 702.88,-294 708.88,-288 714.88,-288 714.88,-288 763.12,-288 763.12,-288 769.12,-288 775.12,-294 775.12,-300 775.12,-300 775.12,-312 775.12,-312 775.12,-318 769.12,-324 763.12,-324"/>
<text text-anchor="middle" x="739" y="-302.12" font-family="sans" font-size="10.00">train_student</text>
</g>
<!-- 4&#45;&gt;37 -->
<g id="edge86" class="edge">
<title>4&#45;&gt;37</title>
<path fill="none" stroke="grey" stroke-width="2" d="M282.46,-372.35C366.06,-360.39 589.16,-328.45 689.23,-314.12"/>
<polygon fill="grey" stroke="grey" stroke-width="2" points="690.53,-317.19 699.94,-312.31 689.54,-310.26 690.53,-317.19"/>
</g>
<!-- 4&#45;&gt;57 -->
<g id="edge134" class="edge">
<title>4&#45;&gt;57</title>
<path fill="none" stroke="grey" stroke-width="2" d="M220.04,-359.13C175.45,-330.16 100.2,-270.66 133,-216 154.84,-179.6 263.41,-134.78 330.4,-109.91"/>
<polygon fill="grey" stroke="grey" stroke-width="2" points="332.22,-113.24 340.4,-106.51 329.81,-106.67 332.22,-113.24"/>
</g>
<!-- 4&#45;&gt;58 -->
<g id="edge139" class="edge">
<title>4&#45;&gt;58</title>
<path fill="none" stroke="grey" stroke-width="2" d="M267.44,-359.14C277.2,-348.99 289.47,-335.97 300,-324 363.37,-251.95 433.71,-163.22 468.33,-118.93"/>
<polygon fill="grey" stroke="grey" stroke-width="2" points="471.75,-120.95 475.14,-110.91 466.23,-116.64 471.75,-120.95"/>
</g>
<!-- 5 -->
<g id="node6" class="node">
<title>5</title>
<path fill="none" stroke="#56d85b" stroke-width="2" d="M1157.62,-764.62C1157.62,-764.62 1058.38,-764.62 1058.38,-764.62 1052.38,-764.62 1046.38,-758.62 1046.38,-752.62 1046.38,-752.62 1046.38,-740.62 1046.38,-740.62 1046.38,-734.62 1052.38,-728.62 1058.38,-728.62 1058.38,-728.62 1157.62,-728.62 1157.62,-728.62 1163.62,-728.62 1169.62,-734.62 1169.62,-740.62 1169.62,-740.62 1169.62,-752.62 1169.62,-752.62 1169.62,-758.62 1163.62,-764.62 1157.62,-764.62"/>
<text text-anchor="middle" x="1108" y="-748.38" font-family="sans" font-size="10.00">marian</text>
<text text-anchor="middle" x="1108" y="-737.12" font-family="sans" font-size="10.00">marian_type: marian&#45;dev</text>
</g>
<!-- 5&#45;&gt;4 -->
<g id="edge27" class="edge">
<title>5&#45;&gt;4</title>
<path fill="none" stroke="grey" stroke-width="2" d="M1045.5,-740.82C871.3,-727.41 392.88,-690.54 391,-689.75 368.66,-680.33 369.3,-668.43 350,-653.75 326.74,-636.07 311.22,-642.05 295,-617.75 272.44,-583.97 258.35,-465.86 252.76,-409.45"/>
<polygon fill="grey" stroke="grey" stroke-width="2" points="255.99,-409.45 251.55,-399.83 249.02,-410.12 255.99,-409.45"/>
</g>
<!-- 28 -->
<g id="node29" class="node">
<title>28</title>
<path fill="none" stroke="#d85656" stroke-width="2" d="M425,-542.88C425,-542.88 395,-542.88 395,-542.88 389,-542.88 383,-536.88 383,-530.88 383,-530.88 383,-518.88 383,-518.88 383,-512.88 389,-506.88 395,-506.88 395,-506.88 425,-506.88 425,-506.88 431,-506.88 437,-512.88 437,-518.88 437,-518.88 437,-530.88 437,-530.88 437,-536.88 431,-542.88 425,-542.88"/>
<text text-anchor="middle" x="410" y="-521" font-family="sans" font-size="10.00">score</text>
</g>
<!-- 5&#45;&gt;28 -->
<g id="edge64" class="edge">
<title>5&#45;&gt;28</title>
<path fill="none" stroke="grey" stroke-width="2" d="M1045.56,-740.44C906.62,-728.74 582.42,-700.47 561,-689.75 500.02,-659.23 451.43,-593.05 427.07,-554.78"/>
<polygon fill="grey" stroke="grey" stroke-width="2" points="429.55,-552.53 421.31,-545.87 423.6,-556.22 429.55,-552.53"/>
</g>
<!-- 29 -->
<g id="node30" class="node">
<title>29</title>
<path fill="none" stroke="#bed856" stroke-width="2" d="M673,-617.75C673,-617.75 615,-617.75 615,-617.75 609,-617.75 603,-611.75 603,-605.75 603,-605.75 603,-593.75 603,-593.75 603,-587.75 609,-581.75 615,-581.75 615,-581.75 673,-581.75 673,-581.75 679,-581.75 685,-587.75 685,-593.75 685,-593.75 685,-605.75 685,-605.75 685,-611.75 679,-617.75 673,-617.75"/>
<text text-anchor="middle" x="644" y="-595.88" font-family="sans" font-size="10.00">train_backward</text>
</g>
<!-- 5&#45;&gt;29 -->
<g id="edge70" class="edge">
<title>5&#45;&gt;29</title>
<path fill="none" stroke="grey" stroke-width="2" d="M1045.5,-740.4C955.74,-732.18 795.37,-714.54 743,-689.75 712.62,-675.37 684.81,-648.61 666.45,-628.17"/>
<polygon fill="grey" stroke="grey" stroke-width="2" points="668.19,-625.69 658.99,-620.44 662.91,-630.28 668.19,-625.69"/>
</g>
<!-- 33 -->
<g id="node34" class="node">
<title>33</title>
<path fill="none" stroke="#d8d356" stroke-width="2" d="M454.12,-689.75C454.12,-689.75 411.88,-689.75 411.88,-689.75 405.88,-689.75 399.88,-683.75 399.88,-677.75 399.88,-677.75 399.88,-665.75 399.88,-665.75 399.88,-659.75 405.88,-653.75 411.88,-653.75 411.88,-653.75 454.12,-653.75 454.12,-653.75 460.12,-653.75 466.12,-659.75 466.12,-665.75 466.12,-665.75 466.12,-677.75 466.12,-677.75 466.12,-683.75 460.12,-689.75 454.12,-689.75"/>
<text text-anchor="middle" x="433" y="-667.88" font-family="sans" font-size="10.00">train_vocab</text>
</g>
<!-- 5&#45;&gt;33 -->
<g id="edge75" class="edge">
<title>5&#45;&gt;33</title>
<path fill="none" stroke="grey" stroke-width="2" d="M1045.62,-740.84C898.65,-729.44 538.95,-700.84 485,-689.75 483.17,-689.37 481.31,-688.95 479.44,-688.5"/>
<polygon fill="grey" stroke="grey" stroke-width="2" points="479.68,-684.39 469.11,-685.11 477.82,-691.14 479.68,-684.39"/>
</g>
<!-- 5&#45;&gt;36 -->
<g id="edge78" class="edge">
<title>5&#45;&gt;36</title>
<path fill="none" stroke="grey" stroke-width="2" d="M1045.55,-736.86C1008.35,-729.22 961.77,-715.19 927,-689.75 864.11,-643.74 859.31,-616.66 827,-545.75 808.99,-506.22 803,-494.44 803,-451 803,-451 803,-451 803,-377 803,-336.55 808.31,-320.33 784,-288 773.16,-273.58 757.22,-262.66 741.28,-254.59"/>
<polygon fill="grey" stroke="grey" stroke-width="2" points="742.29,-251.27 731.75,-250.22 739.33,-257.62 742.29,-251.27"/>
</g>
<!-- 5&#45;&gt;37 -->
<g id="edge84" class="edge">
<title>5&#45;&gt;37</title>
<path fill="none" stroke="grey" stroke-width="2" d="M1045.58,-741.4C998.91,-735.62 935.42,-721.97 889,-689.75 758.49,-599.15 784.46,-515.31 751,-360 749.41,-352.62 747.64,-344.68 745.96,-337.25"/>
<polygon fill="grey" stroke="grey" stroke-width="2" points="748.73,-335.62 743.09,-326.65 741.9,-337.17 748.73,-335.62"/>
</g>
<!-- 39 -->
<g id="node40" class="node">
<title>39</title>
<path fill="none" stroke="#59d856" stroke-width="2" d="M1118.88,-468C1118.88,-468 1033.12,-468 1033.12,-468 1027.12,-468 1021.12,-462 1021.12,-456 1021.12,-456 1021.12,-444 1021.12,-444 1021.12,-438 1027.12,-432 1033.12,-432 1033.12,-432 1118.88,-432 1118.88,-432 1124.88,-432 1130.88,-438 1130.88,-444 1130.88,-444 1130.88,-456 1130.88,-456 1130.88,-462 1124.88,-468 1118.88,-468"/>
<text text-anchor="middle" x="1076" y="-451.75" font-family="sans" font-size="10.00">evaluate</text>
<text text-anchor="middle" x="1076" y="-440.5" font-family="sans" font-size="10.00">model: teacher&#45;base0</text>
</g>
<!-- 5&#45;&gt;39 -->
<g id="edge88" class="edge">
<title>5&#45;&gt;39</title>
<path fill="none" stroke="grey" stroke-width="2" d="M1106.05,-727.64C1100.73,-678.73 1085.98,-542.87 1079.33,-481.63"/>
<polygon fill="grey" stroke="grey" stroke-width="2" points="1082.49,-481.31 1077.93,-471.75 1075.53,-482.07 1082.49,-481.31"/>
</g>
<!-- 41 -->
<g id="node42" class="node">
<title>41</title>
<path fill="none" stroke="#d86656" stroke-width="2" d="M1215.12,-542.88C1215.12,-542.88 1166.88,-542.88 1166.88,-542.88 1160.88,-542.88 1154.88,-536.88 1154.88,-530.88 1154.88,-530.88 1154.88,-518.88 1154.88,-518.88 1154.88,-512.88 1160.88,-506.88 1166.88,-506.88 1166.88,-506.88 1215.12,-506.88 1215.12,-506.88 1221.12,-506.88 1227.12,-512.88 1227.12,-518.88 1227.12,-518.88 1227.12,-530.88 1227.12,-530.88 1227.12,-536.88 1221.12,-542.88 1215.12,-542.88"/>
<text text-anchor="middle" x="1191" y="-526.62" font-family="sans" font-size="10.00">train_teacher</text>
<text text-anchor="middle" x="1191" y="-515.38" font-family="sans" font-size="10.00">ens: 0</text>
</g>
<!-- 5&#45;&gt;41 -->
<g id="edge94" class="edge">
<title>5&#45;&gt;41</title>
<path fill="none" stroke="grey" stroke-width="2" d="M1119.82,-728.08C1126.68,-717.35 1135.1,-703.15 1141,-689.75 1160.81,-644.77 1175.88,-589.58 1184.07,-556.1"/>
<polygon fill="grey" stroke="grey" stroke-width="2" points="1188.14,-556.13 1187.06,-545.59 1181.33,-554.5 1188.14,-556.13"/>
</g>
<!-- 48 -->
<g id="node49" class="node">
<title>48</title>
<path fill="none" stroke="#59d856" stroke-width="2" d="M1942.88,-468C1942.88,-468 1857.12,-468 1857.12,-468 1851.12,-468 1845.12,-462 1845.12,-456 1845.12,-456 1845.12,-444 1845.12,-444 1845.12,-438 1851.12,-432 1857.12,-432 1857.12,-432 1942.88,-432 1942.88,-432 1948.88,-432 1954.88,-438 1954.88,-444 1954.88,-444 1954.88,-456 1954.88,-456 1954.88,-462 1948.88,-468 1942.88,-468"/>
<text text-anchor="middle" x="1900" y="-451.75" font-family="sans" font-size="10.00">evaluate</text>
<text text-anchor="middle" x="1900" y="-440.5" font-family="sans" font-size="10.00">model: teacher&#45;base0</text>
</g>
<!-- 5&#45;&gt;48 -->
<g id="edge105" class="edge">
<title>5&#45;&gt;48</title>
<path fill="none" stroke="grey" stroke-width="2" d="M1170.33,-744.02C1254.91,-740.37 1409.93,-728.49 1536,-689.75 1604.02,-668.85 1618.58,-655.33 1679,-617.75 1750.49,-573.29 1827.61,-511.61 1869.19,-477.08"/>
<polygon fill="grey" stroke="grey" stroke-width="2" points="1871.54,-479.01 1876.97,-469.92 1867.05,-473.64 1871.54,-479.01"/>
</g>
<!-- 50 -->
<g id="node51" class="node">
<title>50</title>
<path fill="none" stroke="#59d856" stroke-width="2" d="M1390.88,-468C1390.88,-468 1305.12,-468 1305.12,-468 1299.12,-468 1293.12,-462 1293.12,-456 1293.12,-456 1293.12,-444 1293.12,-444 1293.12,-438 1299.12,-432 1305.12,-432 1305.12,-432 1390.88,-432 1390.88,-432 1396.88,-432 1402.88,-438 1402.88,-444 1402.88,-444 1402.88,-456 1402.88,-456 1402.88,-462 1396.88,-468 1390.88,-468"/>
<text text-anchor="middle" x="1348" y="-451.75" font-family="sans" font-size="10.00">evaluate</text>
<text text-anchor="middle" x="1348" y="-440.5" font-family="sans" font-size="10.00">model: teacher&#45;base1</text>
</g>
<!-- 5&#45;&gt;50 -->
<g id="edge108" class="edge">
<title>5&#45;&gt;50</title>
<path fill="none" stroke="grey" stroke-width="2" d="M1126.01,-727.97C1136.76,-717.19 1150.5,-702.99 1162,-689.75 1170.61,-679.83 1279.29,-539.7 1326.42,-478.86"/>
<polygon fill="grey" stroke="grey" stroke-width="2" points="1329.86,-480.85 1333.21,-470.8 1324.32,-476.56 1329.86,-480.85"/>
</g>
<!-- 51 -->
<g id="node52" class="node">
<title>51</title>
<path fill="none" stroke="#d86656" stroke-width="2" d="M1376.12,-542.88C1376.12,-542.88 1327.88,-542.88 1327.88,-542.88 1321.88,-542.88 1315.88,-536.88 1315.88,-530.88 1315.88,-530.88 1315.88,-518.88 1315.88,-518.88 1315.88,-512.88 1321.88,-506.88 1327.88,-506.88 1327.88,-506.88 1376.12,-506.88 1376.12,-506.88 1382.12,-506.88 1388.12,-512.88 1388.12,-518.88 1388.12,-518.88 1388.12,-530.88 1388.12,-530.88 1388.12,-536.88 1382.12,-542.88 1376.12,-542.88"/>
<text text-anchor="middle" x="1352" y="-526.62" font-family="sans" font-size="10.00">train_teacher</text>
<text text-anchor="middle" x="1352" y="-515.38" font-family="sans" font-size="10.00">ens: 1</text>
</g>
<!-- 5&#45;&gt;51 -->
<g id="edge114" class="edge">
<title>5&#45;&gt;51</title>
<path fill="none" stroke="grey" stroke-width="2" d="M1170.48,-731.11C1197.7,-722.47 1228.65,-709.28 1252,-689.75 1295.91,-653.03 1325.91,-591.82 1340.9,-555.51"/>
<polygon fill="grey" stroke="grey" stroke-width="2" points="1344.13,-556.37 1344.58,-545.78 1337.62,-553.78 1344.13,-556.37"/>
</g>
<!-- 52 -->
<g id="node53" class="node">
<title>52</title>
<path fill="none" stroke="#59d856" stroke-width="2" d="M1814.88,-468C1814.88,-468 1729.12,-468 1729.12,-468 1723.12,-468 1717.12,-462 1717.12,-456 1717.12,-456 1717.12,-444 1717.12,-444 1717.12,-438 1723.12,-432 1729.12,-432 1729.12,-432 1814.88,-432 1814.88,-432 1820.88,-432 1826.88,-438 1826.88,-444 1826.88,-444 1826.88,-456 1826.88,-456 1826.88,-462 1820.88,-468 1814.88,-468"/>
<text text-anchor="middle" x="1772" y="-451.75" font-family="sans" font-size="10.00">evaluate</text>
<text text-anchor="middle" x="1772" y="-440.5" font-family="sans" font-size="10.00">model: teacher&#45;base1</text>
</g>
<!-- 5&#45;&gt;52 -->
<g id="edge116" class="edge">
<title>5&#45;&gt;52</title>
<path fill="none" stroke="grey" stroke-width="2" d="M1170.37,-743.01C1244.4,-738.35 1370.7,-725.42 1473,-689.75 1594.8,-647.28 1636.5,-639.6 1725,-545.75 1742.36,-527.34 1754.65,-501.29 1762.3,-481.17"/>
<polygon fill="grey" stroke="grey" stroke-width="2" points="1765.6,-481.53 1765.66,-470.93 1759,-479.18 1765.6,-481.53"/>
</g>
<!-- 53 -->
<g id="node54" class="node">
<title>53</title>
<path fill="none" stroke="#59d856" stroke-width="2" d="M1017.25,-252C1017.25,-252 960.75,-252 960.75,-252 954.75,-252 948.75,-246 948.75,-240 948.75,-240 948.75,-228 948.75,-228 948.75,-222 954.75,-216 960.75,-216 960.75,-216 1017.25,-216 1017.25,-216 1023.25,-216 1029.25,-222 1029.25,-228 1029.25,-228 1029.25,-240 1029.25,-240 1029.25,-246 1023.25,-252 1017.25,-252"/>
<text text-anchor="middle" x="989" y="-235.75" font-family="sans" font-size="10.00">evaluate</text>
<text text-anchor="middle" x="989" y="-224.5" font-family="sans" font-size="10.00">model: student</text>
</g>
<!-- 5&#45;&gt;53 -->
<g id="edge119" class="edge">
<title>5&#45;&gt;53</title>
<path fill="none" stroke="grey" stroke-width="2" d="M1100.21,-727.86C1081.54,-684.44 1034.15,-569.13 1012,-468 996.35,-396.55 991.34,-310.42 989.74,-265.55"/>
<polygon fill="grey" stroke="grey" stroke-width="2" points="993.15,-265.64 989.34,-255.76 986.15,-265.86 993.15,-265.64"/>
</g>
<!-- 54 -->
<g id="node55" class="node">
<title>54</title>
<path fill="none" stroke="#59d856" stroke-width="2" d="M1455.25,-252C1455.25,-252 1398.75,-252 1398.75,-252 1392.75,-252 1386.75,-246 1386.75,-240 1386.75,-240 1386.75,-228 1386.75,-228 1386.75,-222 1392.75,-216 1398.75,-216 1398.75,-216 1455.25,-216 1455.25,-216 1461.25,-216 1467.25,-222 1467.25,-228 1467.25,-228 1467.25,-240 1467.25,-240 1467.25,-246 1461.25,-252 1455.25,-252"/>
<text text-anchor="middle" x="1427" y="-235.75" font-family="sans" font-size="10.00">evaluate</text>
<text text-anchor="middle" x="1427" y="-224.5" font-family="sans" font-size="10.00">model: student</text>
</g>
<!-- 5&#45;&gt;54 -->
<g id="edge122" class="edge">
<title>5&#45;&gt;54</title>
<path fill="none" stroke="grey" stroke-width="2" d="M1170.28,-744.53C1264.14,-739.2 1431,-713.83 1431,-600.75 1431,-600.75 1431,-600.75 1431,-377 1431,-338.64 1429.52,-294.47 1428.36,-265.71"/>
<polygon fill="grey" stroke="grey" stroke-width="2" points="1431.74,-265.77 1427.83,-255.93 1424.75,-266.07 1431.74,-265.77"/>
</g>
<!-- 55 -->
<g id="node56" class="node">
<title>55</title>
<path fill="none" stroke="#59d856" stroke-width="2" d="M876.62,-180C876.62,-180 777.38,-180 777.38,-180 771.38,-180 765.38,-174 765.38,-168 765.38,-168 765.38,-156 765.38,-156 765.38,-150 771.38,-144 777.38,-144 777.38,-144 876.62,-144 876.62,-144 882.62,-144 888.62,-150 888.62,-156 888.62,-156 888.62,-168 888.62,-168 888.62,-174 882.62,-180 876.62,-180"/>
<text text-anchor="middle" x="827" y="-163.75" font-family="sans" font-size="10.00">evaluate</text>
<text text-anchor="middle" x="827" y="-152.5" font-family="sans" font-size="10.00">model: student&#45;finetuned</text>
</g>
<!-- 5&#45;&gt;55 -->
<g id="edge125" class="edge">
<title>5&#45;&gt;55</title>
<path fill="none" stroke="grey" stroke-width="2" d="M1072.7,-727.73C1017.8,-697.94 912.76,-632.75 860,-545.75 837.73,-509.03 841,-493.95 841,-451 841,-451 841,-451 841,-305 841,-266.47 835.83,-222.34 831.78,-193.63"/>
<polygon fill="grey" stroke="grey" stroke-width="2" points="834.82,-192.26 829.9,-182.88 827.89,-193.28 834.82,-192.26"/>
</g>
<!-- 56 -->
<g id="node57" class="node">
<title>56</title>
<path fill="none" stroke="#59d856" stroke-width="2" d="M1693.62,-180C1693.62,-180 1594.38,-180 1594.38,-180 1588.38,-180 1582.38,-174 1582.38,-168 1582.38,-168 1582.38,-156 1582.38,-156 1582.38,-150 1588.38,-144 1594.38,-144 1594.38,-144 1693.62,-144 1693.62,-144 1699.62,-144 1705.62,-150 1705.62,-156 1705.62,-156 1705.62,-168 1705.62,-168 1705.62,-174 1699.62,-180 1693.62,-180"/>
<text text-anchor="middle" x="1644" y="-163.75" font-family="sans" font-size="10.00">evaluate</text>
<text text-anchor="middle" x="1644" y="-152.5" font-family="sans" font-size="10.00">model: student&#45;finetuned</text>
</g>
<!-- 5&#45;&gt;56 -->
<g id="edge128" class="edge">
<title>5&#45;&gt;56</title>
<path fill="none" stroke="grey" stroke-width="2" d="M1170.61,-745.89C1272.83,-744.85 1481.11,-736.5 1650,-689.75 1752.1,-661.49 2009.09,-553.24 2072,-468 2096.02,-435.46 2091,-419.45 2091,-379 2091,-379 2091,-379 2091,-305 2091,-227.95 1846.71,-187.22 1719.32,-171.21"/>
<polygon fill="grey" stroke="grey" stroke-width="2" points="1719.98,-167.4 1709.62,-169.65 1719.12,-174.35 1719.98,-167.4"/>
</g>
<!-- 59 -->
<g id="node60" class="node">
<title>59</title>
<path fill="none" stroke="#59d856" stroke-width="2" d="M1262.75,-468C1262.75,-468 1161.25,-468 1161.25,-468 1155.25,-468 1149.25,-462 1149.25,-456 1149.25,-456 1149.25,-444 1149.25,-444 1149.25,-438 1155.25,-432 1161.25,-432 1161.25,-432 1262.75,-432 1262.75,-432 1268.75,-432 1274.75,-438 1274.75,-444 1274.75,-444 1274.75,-456 1274.75,-456 1274.75,-462 1268.75,-468 1262.75,-468"/>
<text text-anchor="middle" x="1212" y="-451.75" font-family="sans" font-size="10.00">evaluate</text>
<text text-anchor="middle" x="1212" y="-440.5" font-family="sans" font-size="10.00">model: teacher&#45;ensemble</text>
</g>
<!-- 5&#45;&gt;59 -->
<g id="edge141" class="edge">
<title>5&#45;&gt;59</title>
<path fill="none" stroke="grey" stroke-width="2" d="M1110.07,-727.65C1116.24,-674.96 1134.77,-523.38 1146,-504 1152.06,-493.54 1161.04,-484.33 1170.43,-476.65"/>
<polygon fill="grey" stroke="grey" stroke-width="2" points="1172.8,-478.74 1178.68,-469.92 1168.59,-473.15 1172.8,-478.74"/>
</g>
<!-- 60 -->
<g id="node61" class="node">
<title>60</title>
<path fill="none" stroke="#59d856" stroke-width="2" d="M1572.75,-468C1572.75,-468 1471.25,-468 1471.25,-468 1465.25,-468 1459.25,-462 1459.25,-456 1459.25,-456 1459.25,-444 1459.25,-444 1459.25,-438 1465.25,-432 1471.25,-432 1471.25,-432 1572.75,-432 1572.75,-432 1578.75,-432 1584.75,-438 1584.75,-444 1584.75,-444 1584.75,-456 1584.75,-456 1584.75,-462 1578.75,-468 1572.75,-468"/>
<text text-anchor="middle" x="1522" y="-451.75" font-family="sans" font-size="10.00">evaluate</text>
<text text-anchor="middle" x="1522" y="-440.5" font-family="sans" font-size="10.00">model: teacher&#45;ensemble</text>
</g>
<!-- 5&#45;&gt;60 -->
<g id="edge145" class="edge">
<title>5&#45;&gt;60</title>
<path fill="none" stroke="grey" stroke-width="2" d="M1170.57,-742.89C1256.47,-737.88 1404.86,-724.36 1445,-689.75 1506.94,-636.34 1519.44,-532.82 1521.71,-481.45"/>
<polygon fill="grey" stroke="grey" stroke-width="2" points="1525.29,-481.81 1522.1,-471.71 1518.29,-481.6 1525.29,-481.81"/>
</g>
<!-- 62 -->
<g id="node63" class="node">
<title>62</title>
<path fill="none" stroke="#59d856" stroke-width="2" d="M611.12,-468C611.12,-468 544.88,-468 544.88,-468 538.88,-468 532.88,-462 532.88,-456 532.88,-456 532.88,-444 532.88,-444 532.88,-438 538.88,-432 544.88,-432 544.88,-432 611.12,-432 611.12,-432 617.12,-432 623.12,-438 623.12,-444 623.12,-444 623.12,-456 623.12,-456 623.12,-462 617.12,-468 611.12,-468"/>
<text text-anchor="middle" x="578" y="-451.75" font-family="sans" font-size="10.00">evaluate</text>
<text text-anchor="middle" x="578" y="-440.5" font-family="sans" font-size="10.00">model: backward</text>
</g>
<!-- 5&#45;&gt;62 -->
<g id="edge149" class="edge">
<title>5&#45;&gt;62</title>
<path fill="none" stroke="grey" stroke-width="2" d="M1045.71,-741.24C945.22,-733.5 752.2,-715.77 689,-689.75 640.01,-669.58 619.81,-664.01 594,-617.75 570.23,-575.15 570.74,-516.79 573.92,-481.61"/>
<polygon fill="grey" stroke="grey" stroke-width="2" points="577.69,-482.23 575.27,-471.91 570.73,-481.49 577.69,-482.23"/>
</g>
<!-- 63 -->
<g id="node64" class="node">
<title>63</title>
<path fill="none" stroke="#59d856" stroke-width="2" d="M2051.12,-468C2051.12,-468 1984.88,-468 1984.88,-468 1978.88,-468 1972.88,-462 1972.88,-456 1972.88,-456 1972.88,-444 1972.88,-444 1972.88,-438 1978.88,-432 1984.88,-432 1984.88,-432 2051.12,-432 2051.12,-432 2057.12,-432 2063.12,-438 2063.12,-444 2063.12,-444 2063.12,-456 2063.12,-456 2063.12,-462 2057.12,-468 2051.12,-468"/>
<text text-anchor="middle" x="2018" y="-451.75" font-family="sans" font-size="10.00">evaluate</text>
<text text-anchor="middle" x="2018" y="-440.5" font-family="sans" font-size="10.00">model: backward</text>
</g>
<!-- 5&#45;&gt;63 -->
<g id="edge152" class="edge">
<title>5&#45;&gt;63</title>
<path fill="none" stroke="grey" stroke-width="2" d="M1170.39,-746.19C1264.2,-745.32 1446.13,-736.94 1592,-689.75 1749.35,-638.85 1914.24,-526.9 1983.83,-476.49"/>
<polygon fill="grey" stroke="grey" stroke-width="2" points="1986.15,-478.67 1992.16,-469.95 1982.02,-473.02 1986.15,-478.67"/>
</g>
<!-- 6 -->
<g id="node7" class="node">
<title>6</title>
<path fill="none" stroke="#56d8b9" stroke-width="2" d="M425,-468C425,-468 395,-468 395,-468 389,-468 383,-462 383,-456 383,-456 383,-444 383,-444 383,-438 389,-432 395,-432 395,-432 425,-432 425,-432 431,-432 437,-438 437,-444 437,-444 437,-456 437,-456 437,-462 431,-468 425,-468"/>
<text text-anchor="middle" x="410" y="-446.12" font-family="sans" font-size="10.00">ce_filter</text>
</g>
<!-- 6&#45;&gt;4 -->
<g id="edge28" class="edge">
<title>6&#45;&gt;4</title>
<path fill="none" stroke="grey" stroke-width="2" d="M382.13,-436.81C357.84,-426.18 322.21,-410.59 294.06,-398.28"/>
<polygon fill="grey" stroke="grey" stroke-width="2" points="295.08,-395.03 284.51,-394.22 292.27,-401.44 295.08,-395.03"/>
</g>
<!-- 6&#45;&gt;36 -->
<g id="edge79" class="edge">
<title>6&#45;&gt;36</title>
<path fill="none" stroke="grey" stroke-width="2" d="M417.9,-431.17C433.43,-398.1 471.11,-327.08 524,-288 554.4,-265.54 594.83,-252.27 627.56,-244.63"/>
<polygon fill="grey" stroke="grey" stroke-width="2" points="629.13,-247.43 638.15,-241.88 627.64,-240.6 629.13,-247.43"/>
</g>
<!-- 6&#45;&gt;37 -->
<g id="edge85" class="edge">
<title>6&#45;&gt;37</title>
<path fill="none" stroke="grey" stroke-width="2" d="M437.77,-437.02C493.71,-412.87 620.58,-358.11 690.51,-327.93"/>
<polygon fill="grey" stroke="grey" stroke-width="2" points="692.25,-331.13 700.05,-323.95 689.48,-324.7 692.25,-331.13"/>
</g>
<!-- 7 -->
<g id="node8" class="node">
<title>7</title>
<path fill="none" stroke="#5673d8" stroke-width="2" d="M83.5,-617.75C83.5,-617.75 16.5,-617.75 16.5,-617.75 10.5,-617.75 4.5,-611.75 4.5,-605.75 4.5,-605.75 4.5,-593.75 4.5,-593.75 4.5,-587.75 10.5,-581.75 16.5,-581.75 16.5,-581.75 83.5,-581.75 83.5,-581.75 89.5,-581.75 95.5,-587.75 95.5,-593.75 95.5,-593.75 95.5,-605.75 95.5,-605.75 95.5,-611.75 89.5,-617.75 83.5,-617.75"/>
<text text-anchor="middle" x="50" y="-595.88" font-family="sans" font-size="10.00">merge_translated</text>
</g>
<!-- 7&#45;&gt;6 -->
<g id="edge32" class="edge">
<title>7&#45;&gt;6</title>
<path fill="none" stroke="grey" stroke-width="2" d="M93.78,-580.78C164.52,-551.75 302.85,-494.98 370.65,-467.15"/>
<polygon fill="grey" stroke="grey" stroke-width="2" points="372.53,-470.34 380.45,-463.31 369.87,-463.87 372.53,-470.34"/>
</g>
<!-- 7&#45;&gt;28 -->
<g id="edge67" class="edge">
<title>7&#45;&gt;28</title>
<path fill="none" stroke="grey" stroke-width="2" d="M96.33,-589.37C167.54,-574.96 302.7,-547.59 369.94,-533.98"/>
<polygon fill="grey" stroke="grey" stroke-width="2" points="371.34,-536.87 380.44,-531.45 369.95,-530.01 371.34,-536.87"/>
</g>
<!-- 8 -->
<g id="node9" class="node">
<title>8</title>
<path fill="none" stroke="#d8cb56" stroke-width="2" d="M524.75,-839.5C524.75,-839.5 471.25,-839.5 471.25,-839.5 465.25,-839.5 459.25,-833.5 459.25,-827.5 459.25,-827.5 459.25,-815.5 459.25,-815.5 459.25,-809.5 465.25,-803.5 471.25,-803.5 471.25,-803.5 524.75,-803.5 524.75,-803.5 530.75,-803.5 536.75,-809.5 536.75,-815.5 536.75,-815.5 536.75,-827.5 536.75,-827.5 536.75,-833.5 530.75,-839.5 524.75,-839.5"/>
<text text-anchor="middle" x="498" y="-817.62" font-family="sans" font-size="10.00">merge_corpus</text>
</g>
<!-- 8&#45;&gt;7 -->
<g id="edge34" class="edge">
<title>8&#45;&gt;7</title>
<path fill="none" stroke="grey" stroke-width="2" d="M458.31,-814.14C402.82,-804.74 305.42,-786.22 275,-767.5 218.66,-732.83 232.46,-692.71 179,-653.75 157.94,-638.4 131.78,-626.58 108.53,-618.05"/>
<polygon fill="grey" stroke="grey" stroke-width="2" points="108.92,-614.77 98.33,-614.76 106.6,-621.38 108.92,-614.77"/>
</g>
<!-- 25 -->
<g id="node26" class="node">
<title>25</title>
<path fill="none" stroke="#d88d56" stroke-width="2" d="M340.25,-764.62C340.25,-764.62 295.75,-764.62 295.75,-764.62 289.75,-764.62 283.75,-758.62 283.75,-752.62 283.75,-752.62 283.75,-740.62 283.75,-740.62 283.75,-734.62 289.75,-728.62 295.75,-728.62 295.75,-728.62 340.25,-728.62 340.25,-728.62 346.25,-728.62 352.25,-734.62 352.25,-740.62 352.25,-740.62 352.25,-752.62 352.25,-752.62 352.25,-758.62 346.25,-764.62 340.25,-764.62"/>
<text text-anchor="middle" x="318" y="-742.75" font-family="sans" font-size="10.00">split_corpus</text>
</g>
<!-- 8&#45;&gt;25 -->
<g id="edge60" class="edge">
<title>8&#45;&gt;25</title>
<path fill="none" stroke="grey" stroke-width="2" d="M458.5,-804.51C430.97,-793.36 394.12,-778.44 365.07,-766.68"/>
<polygon fill="grey" stroke="grey" stroke-width="2" points="365.73,-763.36 355.15,-762.85 363.1,-769.85 365.73,-763.36"/>
</g>
<!-- 8&#45;&gt;29 -->
<g id="edge69" class="edge">
<title>8&#45;&gt;29</title>
<path fill="none" stroke="grey" stroke-width="2" d="M509.95,-802.52C535.25,-764.43 594.41,-675.38 624.98,-629.38"/>
<polygon fill="grey" stroke="grey" stroke-width="2" points="628.47,-630.94 631.09,-620.67 622.64,-627.07 628.47,-630.94"/>
</g>
<!-- 8&#45;&gt;33 -->
<g id="edge76" class="edge">
<title>8&#45;&gt;33</title>
<path fill="none" stroke="grey" stroke-width="2" d="M490.16,-802.68C479.23,-777.83 459.27,-732.46 446.07,-702.45"/>
<polygon fill="grey" stroke="grey" stroke-width="2" points="449.1,-700.38 441.87,-692.64 442.69,-703.2 449.1,-700.38"/>
</g>
<!-- 8&#45;&gt;41 -->
<g id="edge93" class="edge">
<title>8&#45;&gt;41</title>
<path fill="none" stroke="grey" stroke-width="2" d="M537.47,-820.39C676,-819.61 1134.07,-813.54 1179,-767.5 1234.07,-711.07 1214.83,-607.47 1200.65,-556.23"/>
<polygon fill="grey" stroke="grey" stroke-width="2" points="1203.18,-554.43 1197.02,-545.81 1196.46,-556.39 1203.18,-554.43"/>
</g>
<!-- 8&#45;&gt;51 -->
<g id="edge113" class="edge">
<title>8&#45;&gt;51</title>
<path fill="none" stroke="grey" stroke-width="2" d="M537.58,-819.15C677.71,-814.16 1145.22,-795.56 1206,-767.5 1285.49,-730.8 1299.51,-698.23 1334,-617.75 1342.32,-598.34 1346.83,-574.98 1349.25,-556.67"/>
<polygon fill="grey" stroke="grey" stroke-width="2" points="1353.07,-557.13 1350.73,-546.8 1346.11,-556.33 1353.07,-557.13"/>
</g>
<!-- 9 -->
<g id="node10" class="node">
<title>9</title>
<path fill="none" stroke="#56b1d8" stroke-width="2" d="M440.5,-911.5C440.5,-911.5 409.5,-911.5 409.5,-911.5 403.5,-911.5 397.5,-905.5 397.5,-899.5 397.5,-899.5 397.5,-887.5 397.5,-887.5 397.5,-881.5 403.5,-875.5 409.5,-875.5 409.5,-875.5 440.5,-875.5 440.5,-875.5 446.5,-875.5 452.5,-881.5 452.5,-887.5 452.5,-887.5 452.5,-899.5 452.5,-899.5 452.5,-905.5 446.5,-911.5 440.5,-911.5"/>
<text text-anchor="middle" x="425" y="-889.62" font-family="sans" font-size="10.00">bicleaner</text>
</g>
<!-- 9&#45;&gt;8 -->
<g id="edge39" class="edge">
<title>9&#45;&gt;8</title>
<path fill="none" stroke="grey" stroke-width="2" d="M443.42,-874.84C451.49,-867.1 461.13,-857.86 470.04,-849.31"/>
<polygon fill="grey" stroke="grey" stroke-width="2" points="472.54,-851.85 477.33,-842.4 467.69,-846.8 472.54,-851.85"/>
</g>
<!-- 10 -->
<g id="node11" class="node">
<title>10</title>
<path fill="none" stroke="#56d86b" stroke-width="2" d="M514,-1064.12C514,-1064.12 484,-1064.12 484,-1064.12 478,-1064.12 472,-1058.12 472,-1052.12 472,-1052.12 472,-1040.12 472,-1040.12 472,-1034.12 478,-1028.12 484,-1028.12 484,-1028.12 514,-1028.12 514,-1028.12 520,-1028.12 526,-1034.12 526,-1040.12 526,-1040.12 526,-1052.12 526,-1052.12 526,-1058.12 520,-1064.12 514,-1064.12"/>
<text text-anchor="middle" x="499" y="-1042.25" font-family="sans" font-size="10.00">kenlm</text>
</g>
<!-- 10&#45;&gt;9 -->
<g id="edge43" class="edge">
<title>10&#45;&gt;9</title>
<path fill="none" stroke="grey" stroke-width="2" d="M490.22,-1027.25C477.7,-1001.78 454.58,-954.7 439.49,-924"/>
<polygon fill="grey" stroke="grey" stroke-width="2" points="442.32,-921.78 434.77,-914.35 436.04,-924.87 442.32,-921.78"/>
</g>
<!-- 13 -->
<g id="node14" class="node">
<title>13</title>
<path fill="none" stroke="#56d8d8" stroke-width="2" d="M560.62,-986.38C560.62,-986.38 503.38,-986.38 503.38,-986.38 497.38,-986.38 491.38,-980.38 491.38,-974.38 491.38,-974.38 491.38,-962.38 491.38,-962.38 491.38,-956.38 497.38,-950.38 503.38,-950.38 503.38,-950.38 560.62,-950.38 560.62,-950.38 566.62,-950.38 572.62,-956.38 572.62,-962.38 572.62,-962.38 572.62,-974.38 572.62,-974.38 572.62,-980.38 566.62,-986.38 560.62,-986.38"/>
<text text-anchor="middle" x="532" y="-964.5" font-family="sans" font-size="10.00">bicleaner_pack</text>
</g>
<!-- 10&#45;&gt;13 -->
<g id="edge47" class="edge">
<title>10&#45;&gt;13</title>
<path fill="none" stroke="grey" stroke-width="2" d="M506.82,-1027.17C510.48,-1018.78 514.93,-1008.56 519.07,-999.06"/>
<polygon fill="grey" stroke="grey" stroke-width="2" points="522.45,-999.76 523.24,-989.2 516.03,-996.97 522.45,-999.76"/>
</g>
<!-- 14 -->
<g id="node15" class="node">
<title>14</title>
<path fill="none" stroke="#56b1d8" stroke-width="2" d="M513.5,-911.5C513.5,-911.5 482.5,-911.5 482.5,-911.5 476.5,-911.5 470.5,-905.5 470.5,-899.5 470.5,-899.5 470.5,-887.5 470.5,-887.5 470.5,-881.5 476.5,-875.5 482.5,-875.5 482.5,-875.5 513.5,-875.5 513.5,-875.5 519.5,-875.5 525.5,-881.5 525.5,-887.5 525.5,-887.5 525.5,-899.5 525.5,-899.5 525.5,-905.5 519.5,-911.5 513.5,-911.5"/>
<text text-anchor="middle" x="498" y="-889.62" font-family="sans" font-size="10.00">bicleaner</text>
</g>
<!-- 10&#45;&gt;14 -->
<g id="edge48" class="edge">
<title>10&#45;&gt;14</title>
<path fill="none" stroke="grey" stroke-width="2" d="M492.11,-1027.32C488.29,-1016.49 483.94,-1002.29 482,-989.25 479.27,-970.9 479.29,-965.86 482,-947.5 483.12,-939.92 485.09,-931.92 487.28,-924.5"/>
<polygon fill="grey" stroke="grey" stroke-width="2" points="491.46,-924.94 491.18,-914.35 484.79,-922.8 491.46,-924.94"/>
</g>
<!-- 17 -->
<g id="node18" class="node">
<title>17</title>
<path fill="none" stroke="#56b1d8" stroke-width="2" d="M601.5,-911.5C601.5,-911.5 570.5,-911.5 570.5,-911.5 564.5,-911.5 558.5,-905.5 558.5,-899.5 558.5,-899.5 558.5,-887.5 558.5,-887.5 558.5,-881.5 564.5,-875.5 570.5,-875.5 570.5,-875.5 601.5,-875.5 601.5,-875.5 607.5,-875.5 613.5,-881.5 613.5,-887.5 613.5,-887.5 613.5,-899.5 613.5,-899.5 613.5,-905.5 607.5,-911.5 601.5,-911.5"/>
<text text-anchor="middle" x="586" y="-889.62" font-family="sans" font-size="10.00">bicleaner</text>
</g>
<!-- 10&#45;&gt;17 -->
<g id="edge52" class="edge">
<title>10&#45;&gt;17</title>
<path fill="none" stroke="grey" stroke-width="2" d="M526.63,-1030.17C548.24,-1017.85 575.64,-1000.62 582,-989.25 592.86,-969.85 593.37,-944.55 591.44,-924.98"/>
<polygon fill="grey" stroke="grey" stroke-width="2" points="594.53,-924.65 589.75,-915.19 587.59,-925.56 594.53,-924.65"/>
</g>
<!-- 11 -->
<g id="node12" class="node">
<title>11</title>
<path fill="none" stroke="#568ad8" stroke-width="2" d="M289.88,-986.38C289.88,-986.38 240.12,-986.38 240.12,-986.38 234.12,-986.38 228.12,-980.38 228.12,-974.38 228.12,-974.38 228.12,-962.38 228.12,-962.38 228.12,-956.38 234.12,-950.38 240.12,-950.38 240.12,-950.38 289.88,-950.38 289.88,-950.38 295.88,-950.38 301.88,-956.38 301.88,-962.38 301.88,-962.38 301.88,-974.38 301.88,-974.38 301.88,-980.38 295.88,-986.38 289.88,-986.38"/>
<text text-anchor="middle" x="265" y="-964.5" font-family="sans" font-size="10.00">clean_corpus</text>
</g>
<!-- 11&#45;&gt;9 -->
<g id="edge44" class="edge">
<title>11&#45;&gt;9</title>
<path fill="none" stroke="grey" stroke-width="2" d="M302.51,-950.29C327.28,-939.01 359.7,-924.24 384.96,-912.74"/>
<polygon fill="grey" stroke="grey" stroke-width="2" points="387.07,-915.71 394.72,-908.38 384.17,-909.34 387.07,-915.71"/>
</g>
<!-- 12 -->
<g id="node13" class="node">
<title>12</title>
<path fill="none" stroke="#56d8c1" stroke-width="2" d="M274.12,-1067C274.12,-1067 177.88,-1067 177.88,-1067 171.88,-1067 165.88,-1061 165.88,-1055 165.88,-1055 165.88,-1037.25 165.88,-1037.25 165.88,-1031.25 171.88,-1025.25 177.88,-1025.25 177.88,-1025.25 274.12,-1025.25 274.12,-1025.25 280.12,-1025.25 286.12,-1031.25 286.12,-1037.25 286.12,-1037.25 286.12,-1055 286.12,-1055 286.12,-1061 280.12,-1067 274.12,-1067"/>
<text text-anchor="middle" x="226" y="-1053.5" font-family="sans" font-size="10.00">download_corpus</text>
<text text-anchor="middle" x="226" y="-1042.25" font-family="sans" font-size="10.00">dataset: opus_ada83/v1</text>
<text text-anchor="middle" x="226" y="-1031" font-family="sans" font-size="10.00">kind: corpus</text>
</g>
<!-- 12&#45;&gt;11 -->
<g id="edge46" class="edge">
<title>12&#45;&gt;11</title>
<path fill="none" stroke="grey" stroke-width="2" d="M236.66,-1024.43C240.73,-1016.51 245.47,-1007.32 249.88,-998.74"/>
<polygon fill="grey" stroke="grey" stroke-width="2" points="253.35,-999.71 254.81,-989.22 247.12,-996.51 253.35,-999.71"/>
</g>
<!-- 13&#45;&gt;9 -->
<g id="edge45" class="edge">
<title>13&#45;&gt;9</title>
<path fill="none" stroke="grey" stroke-width="2" d="M505.82,-949.55C492.61,-940.55 476.36,-929.48 461.9,-919.63"/>
<polygon fill="grey" stroke="grey" stroke-width="2" points="463.51,-916.13 453.28,-913.4 459.57,-921.92 463.51,-916.13"/>
</g>
<!-- 13&#45;&gt;14 -->
<g id="edge50" class="edge">
<title>13&#45;&gt;14</title>
<path fill="none" stroke="grey" stroke-width="2" d="M523.77,-949.73C520.19,-942.06 515.9,-932.86 511.85,-924.18"/>
<polygon fill="grey" stroke="grey" stroke-width="2" points="514.79,-922.07 507.39,-914.48 508.45,-925.03 514.79,-922.07"/>
</g>
<!-- 13&#45;&gt;17 -->
<g id="edge54" class="edge">
<title>13&#45;&gt;17</title>
<path fill="none" stroke="grey" stroke-width="2" d="M545.07,-949.73C551.08,-941.62 558.37,-931.79 565.11,-922.69"/>
<polygon fill="grey" stroke="grey" stroke-width="2" points="568.53,-924.6 571.67,-914.48 562.91,-920.44 568.53,-924.6"/>
</g>
<!-- 14&#45;&gt;8 -->
<g id="edge40" class="edge">
<title>14&#45;&gt;8</title>
<path fill="none" stroke="grey" stroke-width="2" d="M498,-874.84C498,-868.25 498,-860.58 498,-853.17"/>
<polygon fill="grey" stroke="grey" stroke-width="2" points="501.5,-853.4 498,-843.4 494.5,-853.4 501.5,-853.4"/>
</g>
<!-- 15 -->
<g id="node16" class="node">
<title>15</title>
<path fill="none" stroke="#568ad8" stroke-width="2" d="M384.88,-986.38C384.88,-986.38 335.12,-986.38 335.12,-986.38 329.12,-986.38 323.12,-980.38 323.12,-974.38 323.12,-974.38 323.12,-962.38 323.12,-962.38 323.12,-956.38 329.12,-950.38 335.12,-950.38 335.12,-950.38 384.88,-950.38 384.88,-950.38 390.88,-950.38 396.88,-956.38 396.88,-962.38 396.88,-962.38 396.88,-974.38 396.88,-974.38 396.88,-980.38 390.88,-986.38 384.88,-986.38"/>
<text text-anchor="middle" x="360" y="-964.5" font-family="sans" font-size="10.00">clean_corpus</text>
</g>
<!-- 15&#45;&gt;14 -->
<g id="edge49" class="edge">
<title>15&#45;&gt;14</title>
<path fill="none" stroke="grey" stroke-width="2" d="M393.76,-949.55C413.24,-939.26 437.83,-926.27 458.24,-915.49"/>
<polygon fill="grey" stroke="grey" stroke-width="2" points="460.5,-918.21 467.71,-910.44 457.23,-912.02 460.5,-918.21"/>
</g>
<!-- 16 -->
<g id="node17" class="node">
<title>16</title>
<path fill="none" stroke="#56d8c1" stroke-width="2" d="M423.75,-1067C423.75,-1067 316.25,-1067 316.25,-1067 310.25,-1067 304.25,-1061 304.25,-1055 304.25,-1055 304.25,-1037.25 304.25,-1037.25 304.25,-1031.25 310.25,-1025.25 316.25,-1025.25 316.25,-1025.25 423.75,-1025.25 423.75,-1025.25 429.75,-1025.25 435.75,-1031.25 435.75,-1037.25 435.75,-1037.25 435.75,-1055 435.75,-1055 435.75,-1061 429.75,-1067 423.75,-1067"/>
<text text-anchor="middle" x="370" y="-1053.5" font-family="sans" font-size="10.00">download_corpus</text>
<text text-anchor="middle" x="370" y="-1042.25" font-family="sans" font-size="10.00">dataset: opus_GNOME/v1</text>
<text text-anchor="middle" x="370" y="-1031" font-family="sans" font-size="10.00">kind: corpus</text>
</g>
<!-- 16&#45;&gt;15 -->
<g id="edge51" class="edge">
<title>16&#45;&gt;15</title>
<path fill="none" stroke="grey" stroke-width="2" d="M367.27,-1024.43C366.27,-1016.87 365.12,-1008.16 364.03,-999.92"/>
<polygon fill="grey" stroke="grey" stroke-width="2" points="367.13,-999.67 362.36,-990.22 360.19,-1000.59 367.13,-999.67"/>
</g>
<!-- 17&#45;&gt;8 -->
<g id="edge41" class="edge">
<title>17&#45;&gt;8</title>
<path fill="none" stroke="grey" stroke-width="2" d="M563.79,-874.84C553.76,-866.86 541.71,-857.27 530.67,-848.49"/>
<polygon fill="grey" stroke="grey" stroke-width="2" points="532.51,-844.89 522.51,-841.4 528.15,-850.37 532.51,-844.89"/>
</g>
<!-- 18 -->
<g id="node19" class="node">
<title>18</title>
<path fill="none" stroke="#568ad8" stroke-width="2" d="M690.88,-986.38C690.88,-986.38 641.12,-986.38 641.12,-986.38 635.12,-986.38 629.12,-980.38 629.12,-974.38 629.12,-974.38 629.12,-962.38 629.12,-962.38 629.12,-956.38 635.12,-950.38 641.12,-950.38 641.12,-950.38 690.88,-950.38 690.88,-950.38 696.88,-950.38 702.88,-956.38 702.88,-962.38 702.88,-962.38 702.88,-974.38 702.88,-974.38 702.88,-980.38 696.88,-986.38 690.88,-986.38"/>
<text text-anchor="middle" x="666" y="-964.5" font-family="sans" font-size="10.00">clean_corpus</text>
</g>
<!-- 18&#45;&gt;17 -->
<g id="edge53" class="edge">
<title>18&#45;&gt;17</title>
<path fill="none" stroke="grey" stroke-width="2" d="M646.63,-949.73C637.24,-941.18 625.76,-930.72 615.33,-921.21"/>
<polygon fill="grey" stroke="grey" stroke-width="2" points="617.49,-918.63 607.74,-914.48 612.78,-923.81 617.49,-918.63"/>
</g>
<!-- 19 -->
<g id="node20" class="node">
<title>19</title>
<path fill="none" stroke="#56d8c1" stroke-width="2" d="M766.62,-1067C766.62,-1067 565.38,-1067 565.38,-1067 559.38,-1067 553.38,-1061 553.38,-1055 553.38,-1055 553.38,-1037.25 553.38,-1037.25 553.38,-1031.25 559.38,-1025.25 565.38,-1025.25 565.38,-1025.25 766.62,-1025.25 766.62,-1025.25 772.62,-1025.25 778.62,-1031.25 778.62,-1037.25 778.62,-1037.25 778.62,-1055 778.62,-1055 778.62,-1061 772.62,-1067 766.62,-1067"/>
<text text-anchor="middle" x="666" y="-1053.5" font-family="sans" font-size="10.00">download_corpus</text>
<text text-anchor="middle" x="666" y="-1042.25" font-family="sans" font-size="10.00">dataset: mtdata_Neulab&#45;tedtalks_train&#45;1&#45;eng&#45;rus</text>
<text text-anchor="middle" x="666" y="-1031" font-family="sans" font-size="10.00">kind: corpus</text>
</g>
<!-- 19&#45;&gt;18 -->
<g id="edge55" class="edge">
<title>19&#45;&gt;18</title>
<path fill="none" stroke="grey" stroke-width="2" d="M666,-1024.43C666,-1016.87 666,-1008.16 666,-999.92"/>
<polygon fill="grey" stroke="grey" stroke-width="2" points="669.5,-1000.22 666,-990.22 662.5,-1000.22 669.5,-1000.22"/>
</g>
<!-- 20 -->
<g id="node21" class="node">
<title>20</title>
<path fill="none" stroke="#56d892" stroke-width="2" d="M815.5,-911.5C815.5,-911.5 736.5,-911.5 736.5,-911.5 730.5,-911.5 724.5,-905.5 724.5,-899.5 724.5,-899.5 724.5,-887.5 724.5,-887.5 724.5,-881.5 730.5,-875.5 736.5,-875.5 736.5,-875.5 815.5,-875.5 815.5,-875.5 821.5,-875.5 827.5,-881.5 827.5,-887.5 827.5,-887.5 827.5,-899.5 827.5,-899.5 827.5,-905.5 821.5,-911.5 815.5,-911.5"/>
<text text-anchor="middle" x="776" y="-889.62" font-family="sans" font-size="10.00">compile_preprocess</text>
</g>
<!-- 20&#45;&gt;7 -->
<g id="edge38" class="edge">
<title>20&#45;&gt;7</title>
<path fill="none" stroke="grey" stroke-width="2" d="M730.55,-874.6C651.75,-842.66 485.94,-771.51 358,-689.75 336.71,-676.14 336.96,-664.29 314,-653.75 230.32,-615.35 199.74,-638.33 110,-617.75 109.58,-617.65 109.17,-617.56 108.75,-617.46"/>
<polygon fill="grey" stroke="grey" stroke-width="2" points="108.94,-613.41 98.39,-614.4 107.26,-620.2 108.94,-613.41"/>
</g>
<!-- 20&#45;&gt;8 -->
<g id="edge42" class="edge">
<title>20&#45;&gt;8</title>
<path fill="none" stroke="grey" stroke-width="2" d="M723.87,-881.45C678.08,-871.45 609.78,-855.82 551,-839.5 550.59,-839.39 550.18,-839.27 549.76,-839.15"/>
<polygon fill="grey" stroke="grey" stroke-width="2" points="550.13,-835.03 539.55,-835.56 548.15,-841.74 550.13,-835.03"/>
</g>
<!-- 21 -->
<g id="node22" class="node">
<title>21</title>
<path fill="none" stroke="#56d89a" stroke-width="2" d="M150.12,-839.5C150.12,-839.5 101.88,-839.5 101.88,-839.5 95.88,-839.5 89.88,-833.5 89.88,-827.5 89.88,-827.5 89.88,-815.5 89.88,-815.5 89.88,-809.5 95.88,-803.5 101.88,-803.5 101.88,-803.5 150.12,-803.5 150.12,-803.5 156.12,-803.5 162.12,-809.5 162.12,-815.5 162.12,-815.5 162.12,-827.5 162.12,-827.5 162.12,-833.5 156.12,-839.5 150.12,-839.5"/>
<text text-anchor="middle" x="126" y="-817.62" font-family="sans" font-size="10.00">merge_mono</text>
</g>
<!-- 20&#45;&gt;21 -->
<g id="edge57" class="edge">
<title>20&#45;&gt;21</title>
<path fill="none" stroke="grey" stroke-width="2" d="M723.62,-886.67C693.83,-883.37 655.83,-879.17 622,-875.5 458.66,-857.76 265.02,-837.21 175.69,-827.75"/>
<polygon fill="grey" stroke="grey" stroke-width="2" points="176.34,-823.98 166.03,-826.41 175.6,-830.94 176.34,-823.98"/>
</g>
<!-- 27 -->
<g id="node28" class="node">
<title>27</title>
<path fill="none" stroke="#8fd856" stroke-width="2" d="M155,-764.62C155,-764.62 97,-764.62 97,-764.62 91,-764.62 85,-758.62 85,-752.62 85,-752.62 85,-740.62 85,-740.62 85,-734.62 91,-728.62 97,-728.62 97,-728.62 155,-728.62 155,-728.62 161,-728.62 167,-734.62 167,-740.62 167,-740.62 167,-752.62 167,-752.62 167,-758.62 161,-764.62 155,-764.62"/>
<text text-anchor="middle" x="126" y="-742.75" font-family="sans" font-size="10.00">split_mono_src</text>
</g>
<!-- 20&#45;&gt;27 -->
<g id="edge63" class="edge">
<title>20&#45;&gt;27</title>
<path fill="none" stroke="grey" stroke-width="2" d="M723.74,-885.7C659.1,-876.9 545.84,-860.2 450,-839.5 330.28,-813.64 301.11,-803.37 184,-767.5 182.68,-767.09 181.34,-766.68 179.99,-766.26"/>
<polygon fill="grey" stroke="grey" stroke-width="2" points="180.3,-762.03 169.71,-762.28 178.15,-768.69 180.3,-762.03"/>
</g>
<!-- 30 -->
<g id="node31" class="node">
<title>30</title>
<path fill="none" stroke="#b6d856" stroke-width="2" d="M817.75,-689.75C817.75,-689.75 764.25,-689.75 764.25,-689.75 758.25,-689.75 752.25,-683.75 752.25,-677.75 752.25,-677.75 752.25,-665.75 752.25,-665.75 752.25,-659.75 758.25,-653.75 764.25,-653.75 764.25,-653.75 817.75,-653.75 817.75,-653.75 823.75,-653.75 829.75,-659.75 829.75,-665.75 829.75,-665.75 829.75,-677.75 829.75,-677.75 829.75,-683.75 823.75,-689.75 817.75,-689.75"/>
<text text-anchor="middle" x="791" y="-667.88" font-family="sans" font-size="10.00">merge_devset</text>
</g>
<!-- 20&#45;&gt;30 -->
<g id="edge74" class="edge">
<title>20&#45;&gt;30</title>
<path fill="none" stroke="grey" stroke-width="2" d="M790.66,-874.87C808.73,-851.87 838.48,-809.58 850,-767.5 854.9,-749.6 857.56,-742.7 850,-725.75 845.45,-715.54 837.84,-706.47 829.58,-698.85"/>
<polygon fill="grey" stroke="grey" stroke-width="2" points="831.64,-695.33 821.73,-691.59 827.14,-700.69 831.64,-695.33"/>
</g>
<!-- 42 -->
<g id="node43" class="node">
<title>42</title>
<path fill="none" stroke="#78d856" stroke-width="2" d="M2018,-617.75C2018,-617.75 1936,-617.75 1936,-617.75 1930,-617.75 1924,-611.75 1924,-605.75 1924,-605.75 1924,-593.75 1924,-593.75 1924,-587.75 1930,-581.75 1936,-581.75 1936,-581.75 2018,-581.75 2018,-581.75 2024,-581.75 2030,-587.75 2030,-593.75 2030,-593.75 2030,-605.75 2030,-605.75 2030,-611.75 2024,-617.75 2018,-617.75"/>
<text text-anchor="middle" x="1977" y="-595.88" font-family="sans" font-size="10.00">copy_backtranslated</text>
</g>
<!-- 20&#45;&gt;42 -->
<g id="edge98" class="edge">
<title>20&#45;&gt;42</title>
<path fill="none" stroke="grey" stroke-width="2" d="M828.43,-891.16C1054.06,-884.88 1934.57,-854.88 2018,-767.5 2052.95,-730.9 2040.7,-701.16 2023,-653.75 2019.5,-644.39 2013.52,-635.58 2007.01,-627.94"/>
<polygon fill="grey" stroke="grey" stroke-width="2" points="2009.69,-625.53 2000.31,-620.61 2004.57,-630.31 2009.69,-625.53"/>
</g>
<!-- 44 -->
<g id="node45" class="node">
<title>44</title>
<path fill="none" stroke="#567bd8" stroke-width="2" d="M1996.88,-764.62C1996.88,-764.62 1941.12,-764.62 1941.12,-764.62 1935.12,-764.62 1929.12,-758.62 1929.12,-752.62 1929.12,-752.62 1929.12,-740.62 1929.12,-740.62 1929.12,-734.62 1935.12,-728.62 1941.12,-728.62 1941.12,-728.62 1996.88,-728.62 1996.88,-728.62 2002.88,-728.62 2008.88,-734.62 2008.88,-740.62 2008.88,-740.62 2008.88,-752.62 2008.88,-752.62 2008.88,-758.62 2002.88,-764.62 1996.88,-764.62"/>
<text text-anchor="middle" x="1969" y="-742.75" font-family="sans" font-size="10.00">split_mono_trg</text>
</g>
<!-- 20&#45;&gt;44 -->
<g id="edge101" class="edge">
<title>20&#45;&gt;44</title>
<path fill="none" stroke="grey" stroke-width="2" d="M828.41,-886.13C1024.92,-862.27 1716.77,-778.26 1915.34,-754.14"/>
<polygon fill="grey" stroke="grey" stroke-width="2" points="1915.73,-757.26 1925.24,-752.57 1914.89,-750.31 1915.73,-757.26"/>
</g>
<!-- 45 -->
<g id="node46" class="node">
<title>45</title>
<path fill="none" stroke="#56d89a" stroke-width="2" d="M2117.12,-839.5C2117.12,-839.5 2068.88,-839.5 2068.88,-839.5 2062.88,-839.5 2056.88,-833.5 2056.88,-827.5 2056.88,-827.5 2056.88,-815.5 2056.88,-815.5 2056.88,-809.5 2062.88,-803.5 2068.88,-803.5 2068.88,-803.5 2117.12,-803.5 2117.12,-803.5 2123.12,-803.5 2129.12,-809.5 2129.12,-815.5 2129.12,-815.5 2129.12,-827.5 2129.12,-827.5 2129.12,-833.5 2123.12,-839.5 2117.12,-839.5"/>
<text text-anchor="middle" x="2093" y="-817.62" font-family="sans" font-size="10.00">merge_mono</text>
</g>
<!-- 20&#45;&gt;45 -->
<g id="edge103" class="edge">
<title>20&#45;&gt;45</title>
<path fill="none" stroke="grey" stroke-width="2" d="M828.22,-892.3C1035.99,-891.2 1804.27,-884.12 2043,-839.5 2043.13,-839.48 2043.26,-839.45 2043.4,-839.42"/>
<polygon fill="grey" stroke="grey" stroke-width="2" points="2045.01,-842.16 2053.91,-836.41 2043.37,-835.35 2045.01,-842.16"/>
</g>
<!-- 21&#45;&gt;7 -->
<g id="edge35" class="edge">
<title>21&#45;&gt;7</title>
<path fill="none" stroke="grey" stroke-width="2" d="M103.8,-802.59C93.7,-793.21 82.57,-780.9 76,-767.5 54.53,-723.68 49.99,-666.29 49.44,-631.55"/>
<polygon fill="grey" stroke="grey" stroke-width="2" points="52.93,-631.56 49.41,-621.57 45.93,-631.58 52.93,-631.56"/>
</g>
<!-- 21&#45;&gt;27 -->
<g id="edge62" class="edge">
<title>21&#45;&gt;27</title>
<path fill="none" stroke="grey" stroke-width="2" d="M126,-802.86C126,-795.54 126,-786.82 126,-778.51"/>
<polygon fill="grey" stroke="grey" stroke-width="2" points="129.5,-778.61 126,-768.61 122.5,-778.61 129.5,-778.61"/>
</g>
<!-- 22 -->
<g id="node23" class="node">
<title>22</title>
<path fill="none" stroke="#d8ac56" stroke-width="2" d="M148.25,-911.5C148.25,-911.5 103.75,-911.5 103.75,-911.5 97.75,-911.5 91.75,-905.5 91.75,-899.5 91.75,-899.5 91.75,-887.5 91.75,-887.5 91.75,-881.5 97.75,-875.5 103.75,-875.5 103.75,-875.5 148.25,-875.5 148.25,-875.5 154.25,-875.5 160.25,-881.5 160.25,-887.5 160.25,-887.5 160.25,-899.5 160.25,-899.5 160.25,-905.5 154.25,-911.5 148.25,-911.5"/>
<text text-anchor="middle" x="126" y="-889.62" font-family="sans" font-size="10.00">clean_mono</text>
</g>
<!-- 22&#45;&gt;21 -->
<g id="edge56" class="edge">
<title>22&#45;&gt;21</title>
<path fill="none" stroke="grey" stroke-width="2" d="M126,-874.84C126,-868.25 126,-860.58 126,-853.17"/>
<polygon fill="grey" stroke="grey" stroke-width="2" points="129.5,-853.4 126,-843.4 122.5,-853.4 129.5,-853.4"/>
</g>
<!-- 23 -->
<g id="node24" class="node">
<title>23</title>
<path fill="none" stroke="#5663d8" stroke-width="2" d="M192.12,-989.25C192.12,-989.25 59.88,-989.25 59.88,-989.25 53.88,-989.25 47.88,-983.25 47.88,-977.25 47.88,-977.25 47.88,-959.5 47.88,-959.5 47.88,-953.5 53.88,-947.5 59.88,-947.5 59.88,-947.5 192.12,-947.5 192.12,-947.5 198.12,-947.5 204.12,-953.5 204.12,-959.5 204.12,-959.5 204.12,-977.25 204.12,-977.25 204.12,-983.25 198.12,-989.25 192.12,-989.25"/>
<text text-anchor="middle" x="126" y="-975.75" font-family="sans" font-size="10.00">download_mono</text>
<text text-anchor="middle" x="126" y="-964.5" font-family="sans" font-size="10.00">dataset: news&#45;crawl_news.2020</text>
<text text-anchor="middle" x="126" y="-953.25" font-family="sans" font-size="10.00">lang: ru</text>
</g>
<!-- 23&#45;&gt;22 -->
<g id="edge58" class="edge">
<title>23&#45;&gt;22</title>
<path fill="none" stroke="grey" stroke-width="2" d="M126,-946.69C126,-939.93 126,-932.29 126,-924.97"/>
<polygon fill="grey" stroke="grey" stroke-width="2" points="129.5,-925.03 126,-915.03 122.5,-925.03 129.5,-925.03"/>
</g>
<!-- 24 -->
<g id="node25" class="node">
<title>24</title>
<path fill="none" stroke="#9fd856" stroke-width="2" d="M293.5,-689.75C293.5,-689.75 238.5,-689.75 238.5,-689.75 232.5,-689.75 226.5,-683.75 226.5,-677.75 226.5,-677.75 226.5,-665.75 226.5,-665.75 226.5,-659.75 232.5,-653.75 238.5,-653.75 238.5,-653.75 293.5,-653.75 293.5,-653.75 299.5,-653.75 305.5,-659.75 305.5,-665.75 305.5,-665.75 305.5,-677.75 305.5,-677.75 305.5,-683.75 299.5,-689.75 293.5,-689.75"/>
<text text-anchor="middle" x="266" y="-667.88" font-family="sans" font-size="10.00">collect_corpus</text>
</g>
<!-- 24&#45;&gt;7 -->
<g id="edge36" class="edge">
<title>24&#45;&gt;7</title>
<path fill="none" stroke="grey" stroke-width="2" d="M225.63,-657.67C192.6,-646.96 145.47,-631.69 108.34,-619.66"/>
<polygon fill="grey" stroke="grey" stroke-width="2" points="108.76,-615.47 98.17,-615.71 106.61,-622.13 108.76,-615.47"/>
</g>
<!-- 25&#45;&gt;24 -->
<g id="edge59" class="edge">
<title>25&#45;&gt;24</title>
<path fill="none" stroke="grey" stroke-width="2" d="M305.41,-727.98C299.69,-719.96 292.76,-710.26 286.33,-701.24"/>
<polygon fill="grey" stroke="grey" stroke-width="2" points="288.49,-698.84 279.83,-692.73 282.79,-702.91 288.49,-698.84"/>
</g>
<!-- 26 -->
<g id="node27" class="node">
<title>26</title>
<path fill="none" stroke="#d89556" stroke-width="2" d="M158.25,-689.75C158.25,-689.75 89.75,-689.75 89.75,-689.75 83.75,-689.75 77.75,-683.75 77.75,-677.75 77.75,-677.75 77.75,-665.75 77.75,-665.75 77.75,-659.75 83.75,-653.75 89.75,-653.75 89.75,-653.75 158.25,-653.75 158.25,-653.75 164.25,-653.75 170.25,-659.75 170.25,-665.75 170.25,-665.75 170.25,-677.75 170.25,-677.75 170.25,-683.75 164.25,-689.75 158.25,-689.75"/>
<text text-anchor="middle" x="124" y="-667.88" font-family="sans" font-size="10.00">collect_mono_src</text>
</g>
<!-- 26&#45;&gt;7 -->
<g id="edge37" class="edge">
<title>26&#45;&gt;7</title>
<path fill="none" stroke="grey" stroke-width="2" d="M105.33,-653.09C97.15,-645.35 87.38,-636.11 78.34,-627.56"/>
<polygon fill="grey" stroke="grey" stroke-width="2" points="80.59,-624.98 70.92,-620.65 75.78,-630.07 80.59,-624.98"/>
</g>
<!-- 27&#45;&gt;26 -->
<g id="edge61" class="edge">
<title>27&#45;&gt;26</title>
<path fill="none" stroke="grey" stroke-width="2" d="M125.52,-727.98C125.31,-720.66 125.08,-711.95 124.85,-703.63"/>
<polygon fill="grey" stroke="grey" stroke-width="2" points="128.27,-703.64 124.49,-693.73 121.27,-703.83 128.27,-703.64"/>
</g>
<!-- 28&#45;&gt;6 -->
<g id="edge33" class="edge">
<title>28&#45;&gt;6</title>
<path fill="none" stroke="grey" stroke-width="2" d="M410,-506.23C410,-498.91 410,-490.2 410,-481.88"/>
<polygon fill="grey" stroke="grey" stroke-width="2" points="413.5,-481.98 410,-471.98 406.5,-481.98 413.5,-481.98"/>
</g>
<!-- 29&#45;&gt;28 -->
<g id="edge65" class="edge">
<title>29&#45;&gt;28</title>
<path fill="none" stroke="grey" stroke-width="2" d="M602.17,-585.72C559.16,-572.33 492.65,-551.62 450.24,-538.41"/>
<polygon fill="grey" stroke="grey" stroke-width="2" points="450.49,-534.2 439.9,-534.56 448.41,-540.88 450.49,-534.2"/>
</g>
<!-- 29&#45;&gt;62 -->
<g id="edge151" class="edge">
<title>29&#45;&gt;62</title>
<path fill="none" stroke="grey" stroke-width="2" d="M636.04,-580.93C624.94,-556.08 604.67,-510.71 591.27,-480.7"/>
<polygon fill="grey" stroke="grey" stroke-width="2" points="594.26,-478.59 586.99,-470.89 587.87,-481.44 594.26,-478.59"/>
</g>
<!-- 29&#45;&gt;63 -->
<g id="edge154" class="edge">
<title>29&#45;&gt;63</title>
<path fill="none" stroke="grey" stroke-width="2" d="M685.89,-598.31C859.19,-596.22 1520.54,-585.75 1725,-545.75 1780.01,-534.99 1790.7,-521.34 1844,-504 1893.23,-487.99 1908.64,-484.77 1959.8,-469.25"/>
<polygon fill="grey" stroke="grey" stroke-width="2" points="1961.52,-471.78 1970.06,-465.51 1959.47,-465.08 1961.52,-471.78"/>
</g>
<!-- 30&#45;&gt;2 -->
<g id="edge26" class="edge">
<title>30&#45;&gt;2</title>
<path fill="none" stroke="grey" stroke-width="2" d="M775.71,-653.03C767.23,-642.93 756.67,-629.9 748,-617.75 691.45,-538.53 691.18,-509.28 632,-432 559.11,-336.81 458.41,-236.32 410.09,-189.68"/>
<polygon fill="grey" stroke="grey" stroke-width="2" points="412.51,-187.23 402.87,-182.83 407.66,-192.28 412.51,-187.23"/>
</g>
<!-- 30&#45;&gt;29 -->
<g id="edge68" class="edge">
<title>30&#45;&gt;29</title>
<path fill="none" stroke="grey" stroke-width="2" d="M753.53,-652.9C735.19,-644.18 712.89,-633.56 693.21,-624.18"/>
<polygon fill="grey" stroke="grey" stroke-width="2" points="694.19,-620.82 683.66,-619.68 691.19,-627.14 694.19,-620.82"/>
</g>
<!-- 30&#45;&gt;36 -->
<g id="edge77" class="edge">
<title>30&#45;&gt;36</title>
<path fill="none" stroke="grey" stroke-width="2" d="M781.48,-652.87C776.27,-642.73 769.9,-629.7 765,-617.75 714.07,-493.47 714.71,-456.71 694,-324 690.99,-304.72 688.77,-282.93 687.28,-265.74"/>
<polygon fill="grey" stroke="grey" stroke-width="2" points="690.53,-265.49 686.23,-255.8 683.55,-266.05 690.53,-265.49"/>
</g>
<!-- 30&#45;&gt;37 -->
<g id="edge83" class="edge">
<title>30&#45;&gt;37</title>
<path fill="none" stroke="grey" stroke-width="2" d="M786.27,-652.88C781.37,-634.81 773.29,-606.14 765,-581.75 759.48,-565.5 754.59,-562.54 751,-545.75 735.32,-472.37 735.8,-383.56 737.44,-337.71"/>
<polygon fill="grey" stroke="grey" stroke-width="2" points="741.05,-338.06 737.97,-327.92 734.06,-337.77 741.05,-338.06"/>
</g>
<!-- 30&#45;&gt;41 -->
<g id="edge91" class="edge">
<title>30&#45;&gt;41</title>
<path fill="none" stroke="grey" stroke-width="2" d="M830.45,-656.46C903.88,-629.87 1061.36,-572.83 1141.68,-543.74"/>
<polygon fill="grey" stroke="grey" stroke-width="2" points="1143.68,-547.01 1151.89,-540.32 1141.29,-540.43 1143.68,-547.01"/>
</g>
<!-- 30&#45;&gt;51 -->
<g id="edge111" class="edge">
<title>30&#45;&gt;51</title>
<path fill="none" stroke="grey" stroke-width="2" d="M830.7,-660.77C872.76,-650.18 941.09,-632.91 1000,-617.75 1108.03,-589.95 1234.54,-556.78 1302.61,-538.88"/>
<polygon fill="grey" stroke="grey" stroke-width="2" points="1304.25,-541.54 1313.03,-535.62 1302.47,-534.77 1304.25,-541.54"/>
</g>
<!-- 31 -->
<g id="node32" class="node">
<title>31</title>
<path fill="none" stroke="#56d8c1" stroke-width="2" d="M828.62,-767.5C828.62,-767.5 753.38,-767.5 753.38,-767.5 747.38,-767.5 741.38,-761.5 741.38,-755.5 741.38,-755.5 741.38,-737.75 741.38,-737.75 741.38,-731.75 747.38,-725.75 753.38,-725.75 753.38,-725.75 828.62,-725.75 828.62,-725.75 834.62,-725.75 840.62,-731.75 840.62,-737.75 840.62,-737.75 840.62,-755.5 840.62,-755.5 840.62,-761.5 834.62,-767.5 828.62,-767.5"/>
<text text-anchor="middle" x="791" y="-754" font-family="sans" font-size="10.00">download_corpus</text>
<text text-anchor="middle" x="791" y="-742.75" font-family="sans" font-size="10.00">dataset: flores_dev</text>
<text text-anchor="middle" x="791" y="-731.5" font-family="sans" font-size="10.00">kind: devset</text>
</g>
<!-- 31&#45;&gt;30 -->
<g id="edge72" class="edge">
<title>31&#45;&gt;30</title>
<path fill="none" stroke="grey" stroke-width="2" d="M791,-724.94C791,-718.18 791,-710.54 791,-703.22"/>
<polygon fill="grey" stroke="grey" stroke-width="2" points="794.5,-703.28 791,-693.28 787.5,-703.28 794.5,-703.28"/>
</g>
<!-- 32 -->
<g id="node33" class="node">
<title>32</title>
<path fill="none" stroke="#56d8c1" stroke-width="2" d="M711.38,-767.5C711.38,-767.5 604.62,-767.5 604.62,-767.5 598.62,-767.5 592.62,-761.5 592.62,-755.5 592.62,-755.5 592.62,-737.75 592.62,-737.75 592.62,-731.75 598.62,-725.75 604.62,-725.75 604.62,-725.75 711.38,-725.75 711.38,-725.75 717.38,-725.75 723.38,-731.75 723.38,-737.75 723.38,-737.75 723.38,-755.5 723.38,-755.5 723.38,-761.5 717.38,-767.5 711.38,-767.5"/>
<text text-anchor="middle" x="658" y="-754" font-family="sans" font-size="10.00">download_corpus</text>
<text text-anchor="middle" x="658" y="-742.75" font-family="sans" font-size="10.00">dataset: sacrebleu_wmt19</text>
<text text-anchor="middle" x="658" y="-731.5" font-family="sans" font-size="10.00">kind: devset</text>
</g>
<!-- 32&#45;&gt;30 -->
<g id="edge73" class="edge">
<title>32&#45;&gt;30</title>
<path fill="none" stroke="grey" stroke-width="2" d="M695.76,-724.94C711.86,-716.12 730.74,-705.77 747.42,-696.63"/>
<polygon fill="grey" stroke="grey" stroke-width="2" points="749.48,-699.4 756.57,-691.52 746.11,-693.26 749.48,-699.4"/>
</g>
<!-- 33&#45;&gt;1 -->
<g id="edge20" class="edge">
<title>33&#45;&gt;1</title>
<path fill="none" stroke="grey" stroke-width="2" d="M399.08,-658.15C394.38,-656.58 389.59,-655.06 385,-653.75 313.68,-633.33 288.39,-650.86 222,-617.75 92.33,-553.09 0,-523.9 0,-379 0,-379 0,-379 0,-233 0,-149.83 113.19,-112.66 175.69,-98.48"/>
<polygon fill="grey" stroke="grey" stroke-width="2" points="177.16,-101.31 186.2,-95.79 175.69,-94.47 177.16,-101.31"/>
</g>
<!-- 33&#45;&gt;2 -->
<g id="edge25" class="edge">
<title>33&#45;&gt;2</title>
<path fill="none" stroke="grey" stroke-width="2" d="M398.89,-657.17C372.97,-646.08 340.52,-630.25 333,-617.75 289.77,-545.92 351.19,-283.19 374.04,-193.36"/>
<polygon fill="grey" stroke="grey" stroke-width="2" points="378.13,-193.49 377.23,-182.94 371.35,-191.75 378.13,-193.49"/>
</g>
<!-- 33&#45;&gt;4 -->
<g id="edge29" class="edge">
<title>33&#45;&gt;4</title>
<path fill="none" stroke="grey" stroke-width="2" d="M398.91,-658.19C359.48,-643.59 299.38,-621.05 295,-617.75 244.36,-579.64 260.78,-540.55 209,-504 165.59,-473.36 126.41,-510.86 95,-468 62.67,-423.88 148.35,-398.32 204.85,-386.68"/>
<polygon fill="grey" stroke="grey" stroke-width="2" points="206.31,-389.57 215.46,-384.21 204.97,-382.7 206.31,-389.57"/>
</g>
<!-- 33&#45;&gt;28 -->
<g id="edge66" class="edge">
<title>33&#45;&gt;28</title>
<path fill="none" stroke="grey" stroke-width="2" d="M422.55,-652.77C417.36,-642.81 411.64,-629.99 409,-617.75 404.68,-597.72 404.94,-574.66 406.28,-556.65"/>
<polygon fill="grey" stroke="grey" stroke-width="2" points="410.05,-557 407.49,-546.72 403.08,-556.35 410.05,-557"/>
</g>
<!-- 33&#45;&gt;29 -->
<g id="edge71" class="edge">
<title>33&#45;&gt;29</title>
<path fill="none" stroke="grey" stroke-width="2" d="M466.9,-659.5C500.12,-648.48 551.26,-631.52 590.07,-618.64"/>
<polygon fill="grey" stroke="grey" stroke-width="2" points="591.81,-621.09 600.2,-614.62 589.6,-614.45 591.81,-621.09"/>
</g>
<!-- 33&#45;&gt;36 -->
<g id="edge82" class="edge">
<title>33&#45;&gt;36</title>
<path fill="none" stroke="grey" stroke-width="2" d="M435.43,-653.04C441.72,-611.67 461.35,-506.58 507,-432 549.04,-363.32 616.59,-296.64 655.26,-261.21"/>
<polygon fill="grey" stroke="grey" stroke-width="2" points="657.38,-264.2 662.44,-254.89 652.68,-259.01 657.38,-264.2"/>
</g>
<!-- 33&#45;&gt;37 -->
<g id="edge87" class="edge">
<title>33&#45;&gt;37</title>
<path fill="none" stroke="grey" stroke-width="2" d="M439.68,-652.99C460.35,-598.03 522.07,-434.23 524,-432 545.64,-407.05 560.35,-412.43 589,-396 626.27,-374.63 668.3,-349.61 698.37,-331.55"/>
<polygon fill="grey" stroke="grey" stroke-width="2" points="700.51,-334.15 707.27,-325.99 696.9,-328.15 700.51,-334.15"/>
</g>
<!-- 33&#45;&gt;41 -->
<g id="edge95" class="edge">
<title>33&#45;&gt;41</title>
<path fill="none" stroke="grey" stroke-width="2" d="M457.73,-652.75C488.12,-631.69 542.09,-597.66 594,-581.75 764.66,-529.45 816.31,-562.71 994,-545.75 1044.11,-540.97 1101.36,-535.15 1141.18,-531.05"/>
<polygon fill="grey" stroke="grey" stroke-width="2" points="1141.39,-534.24 1150.98,-529.73 1140.67,-527.28 1141.39,-534.24"/>
</g>
<!-- 33&#45;&gt;51 -->
<g id="edge115" class="edge">
<title>33&#45;&gt;51</title>
<path fill="none" stroke="grey" stroke-width="2" d="M466.94,-665.29C554.5,-651.22 795.26,-612.67 996,-581.75 1102.6,-565.33 1129.51,-562.86 1236,-545.75 1257.78,-542.25 1281.83,-538.17 1302.35,-534.62"/>
<polygon fill="grey" stroke="grey" stroke-width="2" points="1303.69,-537.59 1312.94,-532.43 1302.49,-530.69 1303.69,-537.59"/>
</g>
<!-- 33&#45;&gt;57 -->
<g id="edge135" class="edge">
<title>33&#45;&gt;57</title>
<path fill="none" stroke="grey" stroke-width="2" d="M399,-658.42C394.31,-656.81 389.55,-655.21 385,-653.75 329.95,-636.09 307.92,-650.09 260,-617.75 206.79,-581.84 222.12,-542.83 171,-504 137.68,-478.69 114.82,-496.31 84,-468 51.21,-437.88 38,-423.53 38,-379 38,-379 38,-379 38,-305 38,-211.33 93.92,-192.59 174,-144 232.91,-108.26 260.73,-125.58 330.15,-108.73"/>
<polygon fill="grey" stroke="grey" stroke-width="2" points="331.85,-111.37 340.63,-105.44 330.07,-104.6 331.85,-111.37"/>
</g>
<!-- 33&#45;&gt;58 -->
<g id="edge140" class="edge">
<title>33&#45;&gt;58</title>
<path fill="none" stroke="grey" stroke-width="2" d="M421.66,-652.98C415.44,-642.87 407.84,-629.84 402,-617.75 365.68,-542.58 360.37,-514.37 374,-432 393.78,-312.45 450.08,-178.5 476.28,-120.45"/>
<polygon fill="grey" stroke="grey" stroke-width="2" points="479.57,-121.49 480.53,-110.94 473.2,-118.58 479.57,-121.49"/>
</g>
<!-- 34 -->
<g id="node35" class="node">
<title>34</title>
<path fill="none" stroke="#a7d856" stroke-width="2" d="M232,-468C232,-468 198,-468 198,-468 192,-468 186,-462 186,-456 186,-456 186,-444 186,-444 186,-438 192,-432 198,-432 198,-432 232,-432 232,-432 238,-432 244,-438 244,-444 244,-444 244,-456 244,-456 244,-462 238,-468 232,-468"/>
<text text-anchor="middle" x="215" y="-446.12" font-family="sans" font-size="10.00">fast_align</text>
</g>
<!-- 34&#45;&gt;4 -->
<g id="edge30" class="edge">
<title>34&#45;&gt;4</title>
<path fill="none" stroke="grey" stroke-width="2" d="M223.83,-431.34C227.33,-424.34 231.44,-416.12 235.36,-408.28"/>
<polygon fill="grey" stroke="grey" stroke-width="2" points="238.71,-409.41 240.05,-398.9 232.45,-406.28 238.71,-409.41"/>
</g>
<!-- 35 -->
<g id="node36" class="node">
<title>35</title>
<path fill="none" stroke="#56b9d8" stroke-width="2" d="M156,-468C156,-468 116,-468 116,-468 110,-468 104,-462 104,-456 104,-456 104,-444 104,-444 104,-438 110,-432 116,-432 116,-432 156,-432 156,-432 162,-432 168,-438 168,-444 168,-444 168,-456 168,-456 168,-462 162,-468 156,-468"/>
<text text-anchor="middle" x="136" y="-446.12" font-family="sans" font-size="10.00">extract_lex</text>
</g>
<!-- 35&#45;&gt;4 -->
<g id="edge31" class="edge">
<title>35&#45;&gt;4</title>
<path fill="none" stroke="grey" stroke-width="2" d="M165.06,-431.15C178.73,-422.76 195.24,-412.62 210.06,-403.52"/>
<polygon fill="grey" stroke="grey" stroke-width="2" points="212.3,-406.03 218.99,-397.81 208.64,-400.06 212.3,-406.03"/>
</g>
<!-- 36&#45;&gt;2 -->
<g id="edge24" class="edge">
<title>36&#45;&gt;2</title>
<path fill="none" stroke="grey" stroke-width="2" d="M640.29,-222.67C581.34,-209.05 478.5,-185.29 422,-172.24"/>
<polygon fill="grey" stroke="grey" stroke-width="2" points="422.22,-168.24 411.68,-169.4 420.64,-175.06 422.22,-168.24"/>
</g>
<!-- 36&#45;&gt;55 -->
<g id="edge127" class="edge">
<title>36&#45;&gt;55</title>
<path fill="none" stroke="grey" stroke-width="2" d="M721.2,-215.15C738.89,-206.43 760.41,-195.82 779.42,-186.46"/>
<polygon fill="grey" stroke="grey" stroke-width="2" points="781.44,-189.37 788.87,-181.81 778.35,-183.09 781.44,-189.37"/>
</g>
<!-- 36&#45;&gt;56 -->
<g id="edge130" class="edge">
<title>36&#45;&gt;56</title>
<path fill="none" stroke="grey" stroke-width="2" d="M729.97,-229.72C882.02,-218.62 1378.05,-182.41 1568.55,-168.51"/>
<polygon fill="grey" stroke="grey" stroke-width="2" points="1568.74,-171.78 1578.46,-167.57 1568.23,-164.8 1568.74,-171.78"/>
</g>
<!-- 37&#45;&gt;36 -->
<g id="edge81" class="edge">
<title>37&#45;&gt;36</title>
<path fill="none" stroke="grey" stroke-width="2" d="M725.37,-287.34C719.73,-280.01 713.03,-271.34 706.74,-263.18"/>
<polygon fill="grey" stroke="grey" stroke-width="2" points="708.69,-260.68 699.81,-254.9 703.15,-264.96 708.69,-260.68"/>
</g>
<!-- 37&#45;&gt;53 -->
<g id="edge121" class="edge">
<title>37&#45;&gt;53</title>
<path fill="none" stroke="grey" stroke-width="2" d="M775.89,-294.67C818.03,-282.87 887.36,-263.46 935.45,-249.99"/>
<polygon fill="grey" stroke="grey" stroke-width="2" points="937.11,-252.6 945.8,-246.54 935.22,-245.86 937.11,-252.6"/>
</g>
<!-- 37&#45;&gt;54 -->
<g id="edge124" class="edge">
<title>37&#45;&gt;54</title>
<path fill="none" stroke="grey" stroke-width="2" d="M775.99,-301.24C890.38,-289.6 1238.79,-254.15 1373.26,-240.47"/>
<polygon fill="grey" stroke="grey" stroke-width="2" points="1373.37,-243.67 1382.97,-239.17 1372.66,-236.71 1373.37,-243.67"/>
</g>
<!-- 38 -->
<g id="node39" class="node">
<title>38</title>
<path fill="none" stroke="#56d882" stroke-width="2" d="M313,-108C313,-108 273,-108 273,-108 267,-108 261,-102 261,-96 261,-96 261,-84 261,-84 261,-78 267,-72 273,-72 273,-72 313,-72 313,-72 319,-72 325,-78 325,-84 325,-84 325,-96 325,-96 325,-102 319,-108 313,-108"/>
<text text-anchor="middle" x="293" y="-86.12" font-family="sans" font-size="10.00">experiment</text>
</g>
<!-- 38&#45;&gt;0 -->
<g id="edge2" class="edge">
<title>38&#45;&gt;0</title>
<path fill="none" stroke="grey" stroke-width="2" d="M325.8,-74.28C328.54,-73.39 331.29,-72.61 334,-72 517.24,-30.34 1112.24,-21.12 1273.41,-19.37"/>
<polygon fill="grey" stroke="grey" stroke-width="2" points="1273.42,-22.84 1283.38,-19.24 1273.35,-15.84 1273.42,-22.84"/>
</g>
<!-- 39&#45;&gt;0 -->
<g id="edge3" class="edge">
<title>39&#45;&gt;0</title>
<path fill="none" stroke="grey" stroke-width="2" d="M1114.09,-431.15C1172.12,-402.7 1276,-346.28 1276,-307 1276,-307 1276,-307 1276,-161 1276,-121.16 1290.13,-77.11 1301.15,-48.8"/>
<polygon fill="grey" stroke="grey" stroke-width="2" points="1304.44,-49.55 1304.94,-38.97 1297.95,-46.93 1304.44,-49.55"/>
</g>
<!-- 40 -->
<g id="node41" class="node">
<title>40</title>
<path fill="none" stroke="#56d8c1" stroke-width="2" d="M972.88,-545.75C972.88,-545.75 881.12,-545.75 881.12,-545.75 875.12,-545.75 869.12,-539.75 869.12,-533.75 869.12,-533.75 869.12,-516 869.12,-516 869.12,-510 875.12,-504 881.12,-504 881.12,-504 972.88,-504 972.88,-504 978.88,-504 984.88,-510 984.88,-516 984.88,-516 984.88,-533.75 984.88,-533.75 984.88,-539.75 978.88,-545.75 972.88,-545.75"/>
<text text-anchor="middle" x="927" y="-532.25" font-family="sans" font-size="10.00">download_corpus</text>
<text text-anchor="middle" x="927" y="-521" font-family="sans" font-size="10.00">dataset: flores_devtest</text>
<text text-anchor="middle" x="927" y="-509.75" font-family="sans" font-size="10.00">kind: eval</text>
</g>
<!-- 40&#45;&gt;39 -->
<g id="edge89" class="edge">
<title>40&#45;&gt;39</title>
<path fill="none" stroke="grey" stroke-width="2" d="M969.3,-503.19C987.59,-494.24 1009.1,-483.72 1027.99,-474.48"/>
<polygon fill="grey" stroke="grey" stroke-width="2" points="1030.22,-477.31 1037.66,-469.77 1027.14,-471.02 1030.22,-477.31"/>
</g>
<!-- 40&#45;&gt;50 -->
<g id="edge109" class="edge">
<title>40&#45;&gt;50</title>
<path fill="none" stroke="grey" stroke-width="2" d="M985.78,-516.59C1054.18,-507.69 1170.74,-491.21 1279.68,-468.8"/>
<polygon fill="grey" stroke="grey" stroke-width="2" points="1281.16,-471.65 1290.23,-466.18 1279.73,-464.79 1281.16,-471.65"/>
</g>
<!-- 40&#45;&gt;53 -->
<g id="edge120" class="edge">
<title>40&#45;&gt;53</title>
<path fill="none" stroke="grey" stroke-width="2" d="M931.46,-503.1C942.25,-452.81 969.82,-324.35 982.48,-265.4"/>
<polygon fill="grey" stroke="grey" stroke-width="2" points="986.47,-265.47 985.15,-254.96 979.63,-264 986.47,-265.47"/>
</g>
<!-- 40&#45;&gt;55 -->
<g id="edge126" class="edge">
<title>40&#45;&gt;55</title>
<path fill="none" stroke="grey" stroke-width="2" d="M915.62,-503.47C901.43,-476.04 879,-425.37 879,-379 879,-379 879,-379 879,-305 879,-263.83 859.49,-219.83 844.37,-191.9"/>
<polygon fill="grey" stroke="grey" stroke-width="2" points="846.98,-189.62 839.03,-182.62 840.88,-193.05 846.98,-189.62"/>
</g>
<!-- 40&#45;&gt;57 -->
<g id="edge132" class="edge">
<title>40&#45;&gt;57</title>
<path fill="none" stroke="grey" stroke-width="2" d="M924.68,-503.27C921.73,-475.21 917,-423.37 917,-379 917,-379 917,-379 917,-233 917,-192.55 928.42,-170.65 898,-144 859.61,-110.36 490.16,-117.47 440,-108 439.25,-107.86 438.5,-107.71 437.74,-107.56"/>
<polygon fill="grey" stroke="grey" stroke-width="2" points="437.88,-103.52 427.34,-104.64 436.27,-110.34 437.88,-103.52"/>
</g>
<!-- 40&#45;&gt;59 -->
<g id="edge142" class="edge">
<title>40&#45;&gt;59</title>
<path fill="none" stroke="grey" stroke-width="2" d="M985.71,-508.86C1029.24,-497.73 1088.94,-482.47 1136.1,-470.41"/>
<polygon fill="grey" stroke="grey" stroke-width="2" points="1137.6,-473.13 1146.42,-467.26 1135.86,-466.34 1137.6,-473.13"/>
</g>
<!-- 40&#45;&gt;62 -->
<g id="edge150" class="edge">
<title>40&#45;&gt;62</title>
<path fill="none" stroke="grey" stroke-width="2" d="M868.19,-511.6C803.63,-498.11 700.61,-476.6 636.27,-463.17"/>
<polygon fill="grey" stroke="grey" stroke-width="2" points="636.44,-459.21 625.94,-460.59 635.01,-466.06 636.44,-459.21"/>
</g>
<!-- 41&#45;&gt;39 -->
<g id="edge90" class="edge">
<title>41&#45;&gt;39</title>
<path fill="none" stroke="grey" stroke-width="2" d="M1162.87,-506.05C1148.53,-496.96 1130.86,-485.76 1115.2,-475.84"/>
<polygon fill="grey" stroke="grey" stroke-width="2" points="1116.56,-472.29 1106.24,-469.9 1112.81,-478.2 1116.56,-472.29"/>
</g>
<!-- 41&#45;&gt;48 -->
<g id="edge107" class="edge">
<title>41&#45;&gt;48</title>
<path fill="none" stroke="grey" stroke-width="2" d="M1227.95,-516.56C1250.67,-512.3 1280.42,-507.17 1307,-504 1536.88,-476.56 1601.25,-505.38 1831.75,-468.51"/>
<polygon fill="grey" stroke="grey" stroke-width="2" points="1832.98,-471.53 1842.29,-466.47 1831.86,-464.63 1832.98,-471.53"/>
</g>
<!-- 41&#45;&gt;59 -->
<g id="edge143" class="edge">
<title>41&#45;&gt;59</title>
<path fill="none" stroke="grey" stroke-width="2" d="M1196.08,-506.23C1198.24,-498.74 1200.83,-489.78 1203.27,-481.28"/>
<polygon fill="grey" stroke="grey" stroke-width="2" points="1207.41,-481.56 1206.82,-470.98 1200.69,-479.62 1207.41,-481.56"/>
</g>
<!-- 41&#45;&gt;60 -->
<g id="edge147" class="edge">
<title>41&#45;&gt;60</title>
<path fill="none" stroke="grey" stroke-width="2" d="M1228.01,-515.73C1280.49,-504.17 1377.76,-482.76 1445.99,-467.73"/>
<polygon fill="grey" stroke="grey" stroke-width="2" points="1447.36,-470.58 1456.38,-465.01 1445.86,-463.74 1447.36,-470.58"/>
</g>
<!-- 42&#45;&gt;41 -->
<g id="edge92" class="edge">
<title>42&#45;&gt;41</title>
<path fill="none" stroke="grey" stroke-width="2" d="M1923.42,-596.17C1809.59,-590.31 1535.38,-574.29 1307,-545.75 1285.11,-543.01 1261.05,-539.05 1240.54,-535.38"/>
<polygon fill="grey" stroke="grey" stroke-width="2" points="1240.43,-531.44 1229.96,-533.09 1239.17,-538.33 1240.43,-531.44"/>
</g>
<!-- 42&#45;&gt;51 -->
<g id="edge112" class="edge">
<title>42&#45;&gt;51</title>
<path fill="none" stroke="grey" stroke-width="2" d="M1923.17,-592.47C1803.57,-578.53 1517.18,-545.13 1401.61,-531.66"/>
<polygon fill="grey" stroke="grey" stroke-width="2" points="1402.37,-527.87 1392.03,-530.19 1401.56,-534.83 1402.37,-527.87"/>
</g>
<!-- 43 -->
<g id="node44" class="node">
<title>43</title>
<path fill="none" stroke="#80d856" stroke-width="2" d="M2002.12,-689.75C2002.12,-689.75 1935.88,-689.75 1935.88,-689.75 1929.88,-689.75 1923.88,-683.75 1923.88,-677.75 1923.88,-677.75 1923.88,-665.75 1923.88,-665.75 1923.88,-659.75 1929.88,-653.75 1935.88,-653.75 1935.88,-653.75 2002.12,-653.75 2002.12,-653.75 2008.12,-653.75 2014.12,-659.75 2014.12,-665.75 2014.12,-665.75 2014.12,-677.75 2014.12,-677.75 2014.12,-683.75 2008.12,-689.75 2002.12,-689.75"/>
<text text-anchor="middle" x="1969" y="-667.88" font-family="sans" font-size="10.00">collect_mono_trg</text>
</g>
<!-- 43&#45;&gt;42 -->
<g id="edge96" class="edge">
<title>43&#45;&gt;42</title>
<path fill="none" stroke="grey" stroke-width="2" d="M1971.02,-653.09C1971.77,-646.5 1972.65,-638.83 1973.5,-631.42"/>
<polygon fill="grey" stroke="grey" stroke-width="2" points="1977.3,-631.98 1974.95,-621.65 1970.34,-631.19 1977.3,-631.98"/>
</g>
<!-- 44&#45;&gt;43 -->
<g id="edge99" class="edge">
<title>44&#45;&gt;43</title>
<path fill="none" stroke="grey" stroke-width="2" d="M1969,-727.98C1969,-720.66 1969,-711.95 1969,-703.63"/>
<polygon fill="grey" stroke="grey" stroke-width="2" points="1972.5,-703.73 1969,-693.73 1965.5,-703.73 1972.5,-703.73"/>
</g>
<!-- 45&#45;&gt;42 -->
<g id="edge97" class="edge">
<title>45&#45;&gt;42</title>
<path fill="none" stroke="grey" stroke-width="2" d="M2093.23,-802.76C2092.82,-770.32 2087.94,-700.52 2056,-653.75 2048.38,-642.59 2037.55,-633.14 2026.36,-625.46"/>
<polygon fill="grey" stroke="grey" stroke-width="2" points="2027.92,-622.04 2017.6,-619.64 2024.17,-627.95 2027.92,-622.04"/>
</g>
<!-- 45&#45;&gt;44 -->
<g id="edge100" class="edge">
<title>45&#45;&gt;44</title>
<path fill="none" stroke="grey" stroke-width="2" d="M2062.67,-802.67C2046.9,-793.41 2027.41,-781.95 2010.29,-771.89"/>
<polygon fill="grey" stroke="grey" stroke-width="2" points="2011.85,-768.57 2001.45,-766.52 2008.3,-774.61 2011.85,-768.57"/>
</g>
<!-- 46 -->
<g id="node47" class="node">
<title>46</title>
<path fill="none" stroke="#d8ac56" stroke-width="2" d="M2115.25,-911.5C2115.25,-911.5 2070.75,-911.5 2070.75,-911.5 2064.75,-911.5 2058.75,-905.5 2058.75,-899.5 2058.75,-899.5 2058.75,-887.5 2058.75,-887.5 2058.75,-881.5 2064.75,-875.5 2070.75,-875.5 2070.75,-875.5 2115.25,-875.5 2115.25,-875.5 2121.25,-875.5 2127.25,-881.5 2127.25,-887.5 2127.25,-887.5 2127.25,-899.5 2127.25,-899.5 2127.25,-905.5 2121.25,-911.5 2115.25,-911.5"/>
<text text-anchor="middle" x="2093" y="-889.62" font-family="sans" font-size="10.00">clean_mono</text>
</g>
<!-- 46&#45;&gt;45 -->
<g id="edge102" class="edge">
<title>46&#45;&gt;45</title>
<path fill="none" stroke="grey" stroke-width="2" d="M2093,-874.84C2093,-868.25 2093,-860.58 2093,-853.17"/>
<polygon fill="grey" stroke="grey" stroke-width="2" points="2096.5,-853.4 2093,-843.4 2089.5,-853.4 2096.5,-853.4"/>
</g>
<!-- 47 -->
<g id="node48" class="node">
<title>47</title>
<path fill="none" stroke="#5663d8" stroke-width="2" d="M2159.12,-989.25C2159.12,-989.25 2026.88,-989.25 2026.88,-989.25 2020.88,-989.25 2014.88,-983.25 2014.88,-977.25 2014.88,-977.25 2014.88,-959.5 2014.88,-959.5 2014.88,-953.5 2020.88,-947.5 2026.88,-947.5 2026.88,-947.5 2159.12,-947.5 2159.12,-947.5 2165.12,-947.5 2171.12,-953.5 2171.12,-959.5 2171.12,-959.5 2171.12,-977.25 2171.12,-977.25 2171.12,-983.25 2165.12,-989.25 2159.12,-989.25"/>
<text text-anchor="middle" x="2093" y="-975.75" font-family="sans" font-size="10.00">download_mono</text>
<text text-anchor="middle" x="2093" y="-964.5" font-family="sans" font-size="10.00">dataset: news&#45;crawl_news.2020</text>
<text text-anchor="middle" x="2093" y="-953.25" font-family="sans" font-size="10.00">lang: en</text>
</g>
<!-- 47&#45;&gt;46 -->
<g id="edge104" class="edge">
<title>47&#45;&gt;46</title>
<path fill="none" stroke="grey" stroke-width="2" d="M2093,-946.69C2093,-939.93 2093,-932.29 2093,-924.97"/>
<polygon fill="grey" stroke="grey" stroke-width="2" points="2096.5,-925.03 2093,-915.03 2089.5,-925.03 2096.5,-925.03"/>
</g>
<!-- 48&#45;&gt;0 -->
<g id="edge4" class="edge">
<title>48&#45;&gt;0</title>
<path fill="none" stroke="grey" stroke-width="2" d="M1894.2,-431.29C1886,-404.63 1872,-352.48 1872,-307 1872,-307 1872,-307 1872,-161 1872,-116.27 1862.07,-97.04 1825,-72 1748.45,-20.29 1461.22,-17.56 1354.37,-18.4"/>
<polygon fill="grey" stroke="grey" stroke-width="2" points="1354.65,-14.93 1344.68,-18.53 1354.72,-21.93 1354.65,-14.93"/>
</g>
<!-- 49 -->
<g id="node50" class="node">
<title>49</title>
<path fill="none" stroke="#56d8c1" stroke-width="2" d="M1704.38,-545.75C1704.38,-545.75 1597.62,-545.75 1597.62,-545.75 1591.62,-545.75 1585.62,-539.75 1585.62,-533.75 1585.62,-533.75 1585.62,-516 1585.62,-516 1585.62,-510 1591.62,-504 1597.62,-504 1597.62,-504 1704.38,-504 1704.38,-504 1710.38,-504 1716.38,-510 1716.38,-516 1716.38,-516 1716.38,-533.75 1716.38,-533.75 1716.38,-539.75 1710.38,-545.75 1704.38,-545.75"/>
<text text-anchor="middle" x="1651" y="-532.25" font-family="sans" font-size="10.00">download_corpus</text>
<text text-anchor="middle" x="1651" y="-521" font-family="sans" font-size="10.00">dataset: sacrebleu_wmt20</text>
<text text-anchor="middle" x="1651" y="-509.75" font-family="sans" font-size="10.00">kind: eval</text>
</g>
<!-- 49&#45;&gt;48 -->
<g id="edge106" class="edge">
<title>49&#45;&gt;48</title>
<path fill="none" stroke="grey" stroke-width="2" d="M1717.07,-504.54C1752.52,-494.16 1796.13,-481.4 1831.88,-470.94"/>
<polygon fill="grey" stroke="grey" stroke-width="2" points="1833.55,-473.51 1842.17,-467.34 1831.59,-466.79 1833.55,-473.51"/>
</g>
<!-- 49&#45;&gt;52 -->
<g id="edge117" class="edge">
<title>49&#45;&gt;52</title>
<path fill="none" stroke="grey" stroke-width="2" d="M1685.35,-503.19C1699.71,-494.54 1716.51,-484.42 1731.48,-475.41"/>
<polygon fill="grey" stroke="grey" stroke-width="2" points="1733.73,-477.93 1740.49,-469.77 1730.12,-471.93 1733.73,-477.93"/>
</g>
<!-- 49&#45;&gt;54 -->
<g id="edge123" class="edge">
<title>49&#45;&gt;54</title>
<path fill="none" stroke="grey" stroke-width="2" d="M1639.38,-503.24C1628.41,-484.24 1611.12,-455.52 1594,-432 1547.61,-368.28 1486.19,-299.18 1452.25,-262.13"/>
<polygon fill="grey" stroke="grey" stroke-width="2" points="1455.19,-259.98 1445.84,-255 1450.04,-264.72 1455.19,-259.98"/>
</g>
<!-- 49&#45;&gt;56 -->
<g id="edge129" class="edge">
<title>49&#45;&gt;56</title>
<path fill="none" stroke="grey" stroke-width="2" d="M1660.01,-503.21C1671.24,-475.5 1689,-424.5 1689,-379 1689,-379 1689,-379 1689,-305 1689,-264.45 1672.12,-220.3 1659.04,-192.18"/>
<polygon fill="grey" stroke="grey" stroke-width="2" points="1662.04,-190.29 1654.54,-182.81 1655.74,-193.33 1662.04,-190.29"/>
</g>
<!-- 49&#45;&gt;58 -->
<g id="edge137" class="edge">
<title>49&#45;&gt;58</title>
<path fill="none" stroke="grey" stroke-width="2" d="M1646.39,-503.02C1632.44,-445.4 1584.76,-283.85 1476,-216 1318.27,-117.6 727.48,-96.29 544.43,-92.01"/>
<polygon fill="grey" stroke="grey" stroke-width="2" points="544.54,-88.44 534.46,-91.72 544.38,-95.44 544.54,-88.44"/>
</g>
<!-- 49&#45;&gt;60 -->
<g id="edge146" class="edge">
<title>49&#45;&gt;60</title>
<path fill="none" stroke="grey" stroke-width="2" d="M1614.38,-503.19C1598.91,-494.45 1580.8,-484.22 1564.73,-475.14"/>
<polygon fill="grey" stroke="grey" stroke-width="2" points="1565.89,-471.64 1555.46,-469.77 1562.44,-477.74 1565.89,-471.64"/>
</g>
<!-- 49&#45;&gt;63 -->
<g id="edge153" class="edge">
<title>49&#45;&gt;63</title>
<path fill="none" stroke="grey" stroke-width="2" d="M1717.05,-512.55C1793.28,-499.41 1913.34,-478.51 1959.65,-468.7"/>
<polygon fill="grey" stroke="grey" stroke-width="2" points="1961.17,-471.49 1970.16,-465.87 1959.63,-464.66 1961.17,-471.49"/>
</g>
<!-- 50&#45;&gt;0 -->
<g id="edge5" class="edge">
<title>50&#45;&gt;0</title>
<path fill="none" stroke="grey" stroke-width="2" d="M1348.83,-431.07C1350,-404.14 1352,-351.64 1352,-307 1352,-307 1352,-307 1352,-161 1352,-121.16 1337.87,-77.11 1326.85,-48.8"/>
<polygon fill="grey" stroke="grey" stroke-width="2" points="1330.05,-46.93 1323.06,-38.97 1323.56,-49.55 1330.05,-46.93"/>
</g>
<!-- 51&#45;&gt;50 -->
<g id="edge110" class="edge">
<title>51&#45;&gt;50</title>
<path fill="none" stroke="grey" stroke-width="2" d="M1351.03,-506.23C1350.63,-498.91 1350.15,-490.2 1349.7,-481.88"/>
<polygon fill="grey" stroke="grey" stroke-width="2" points="1353.03,-481.78 1348.99,-471.98 1346.04,-482.16 1353.03,-481.78"/>
</g>
<!-- 51&#45;&gt;52 -->
<g id="edge118" class="edge">
<title>51&#45;&gt;52</title>
<path fill="none" stroke="grey" stroke-width="2" d="M1388.9,-517.47C1459.3,-505.26 1613.75,-478.46 1703.56,-462.87"/>
<polygon fill="grey" stroke="grey" stroke-width="2" points="1705.07,-465.82 1714.33,-460.66 1703.88,-458.92 1705.07,-465.82"/>
</g>
<!-- 51&#45;&gt;59 -->
<g id="edge144" class="edge">
<title>51&#45;&gt;59</title>
<path fill="none" stroke="grey" stroke-width="2" d="M1317.75,-506.05C1299.7,-496.65 1277.31,-485 1257.79,-474.84"/>
<polygon fill="grey" stroke="grey" stroke-width="2" points="1258.87,-471.41 1248.38,-469.9 1255.63,-477.62 1258.87,-471.41"/>
</g>
<!-- 51&#45;&gt;60 -->
<g id="edge148" class="edge">
<title>51&#45;&gt;60</title>
<path fill="none" stroke="grey" stroke-width="2" d="M1388.89,-508.06C1412.07,-498.12 1442.37,-485.13 1468.21,-474.06"/>
<polygon fill="grey" stroke="grey" stroke-width="2" points="1470.29,-477.12 1478.1,-469.96 1467.53,-470.68 1470.29,-477.12"/>
</g>
<!-- 52&#45;&gt;0 -->
<g id="edge6" class="edge">
<title>52&#45;&gt;0</title>
<path fill="none" stroke="grey" stroke-width="2" d="M1763.94,-431.03C1752.79,-404.48 1734,-352.94 1734,-307 1734,-307 1734,-307 1734,-161 1734,-133.47 1808.15,-153.06 1602,-72 1517.9,-38.93 1411.74,-26.23 1354.7,-21.56"/>
<polygon fill="grey" stroke="grey" stroke-width="2" points="1355.21,-17.86 1344.97,-20.58 1354.67,-24.84 1355.21,-17.86"/>
</g>
<!-- 53&#45;&gt;0 -->
<g id="edge7" class="edge">
<title>53&#45;&gt;0</title>
<path fill="none" stroke="grey" stroke-width="2" d="M1016.15,-215.12C1073.98,-177.04 1209.45,-87.84 1275.89,-44.1"/>
<polygon fill="grey" stroke="grey" stroke-width="2" points="1278.27,-46.4 1284.7,-37.98 1274.42,-40.55 1278.27,-46.4"/>
</g>
<!-- 54&#45;&gt;0 -->
<g id="edge8" class="edge">
<title>54&#45;&gt;0</title>
<path fill="none" stroke="grey" stroke-width="2" d="M1422.91,-215.47C1415.18,-184.67 1396.44,-119.59 1366,-72 1360.07,-62.74 1352.32,-53.76 1344.62,-45.91"/>
<polygon fill="grey" stroke="grey" stroke-width="2" points="1346.99,-43.4 1337.38,-38.95 1342.12,-48.42 1346.99,-43.4"/>
</g>
<!-- 55&#45;&gt;0 -->
<g id="edge9" class="edge">
<title>55&#45;&gt;0</title>
<path fill="none" stroke="grey" stroke-width="2" d="M888.68,-143.02C989.97,-113.48 1188.79,-55.51 1273.85,-30.71"/>
<polygon fill="grey" stroke="grey" stroke-width="2" points="1275.63,-33.25 1284.25,-27.09 1273.67,-26.53 1275.63,-33.25"/>
</g>
<!-- 56&#45;&gt;0 -->
<g id="edge10" class="edge">
<title>56&#45;&gt;0</title>
<path fill="none" stroke="grey" stroke-width="2" d="M1633.87,-143.21C1621.2,-122.68 1597.54,-89.5 1568,-72 1500.44,-31.97 1407.11,-21.88 1354.43,-19.52"/>
<polygon fill="grey" stroke="grey" stroke-width="2" points="1354.77,-15.92 1344.65,-19.06 1354.52,-22.92 1354.77,-15.92"/>
</g>
<!-- 57&#45;&gt;0 -->
<g id="edge11" class="edge">
<title>57&#45;&gt;0</title>
<path fill="none" stroke="grey" stroke-width="2" d="M425.33,-75.28C430.23,-74 435.2,-72.86 440,-72 603.23,-42.69 1123.1,-24.84 1273.11,-20.21"/>
<polygon fill="grey" stroke="grey" stroke-width="2" points="1273.17,-23.62 1283.06,-19.81 1272.96,-16.62 1273.17,-23.62"/>
</g>
<!-- 58&#45;&gt;0 -->
<g id="edge12" class="edge">
<title>58&#45;&gt;0</title>
<path fill="none" stroke="grey" stroke-width="2" d="M531.56,-81.71C551.85,-78.36 576.64,-74.57 599,-72 854.85,-42.61 1164.18,-26.11 1273.42,-20.86"/>
<polygon fill="grey" stroke="grey" stroke-width="2" points="1273.5,-24.22 1283.32,-20.25 1273.16,-17.22 1273.5,-24.22"/>
</g>
<!-- 59&#45;&gt;0 -->
<g id="edge13" class="edge">
<title>59&#45;&gt;0</title>
<path fill="none" stroke="grey" stroke-width="2" d="M1249.38,-431.02C1263.97,-422.3 1279.65,-410.54 1290,-396 1313.76,-362.63 1314,-347.97 1314,-307 1314,-307 1314,-307 1314,-161 1314,-122.65 1314,-78.48 1314,-49.72"/>
<polygon fill="grey" stroke="grey" stroke-width="2" points="1317.5,-49.93 1314,-39.93 1310.5,-49.93 1317.5,-49.93"/>
</g>
<!-- 60&#45;&gt;0 -->
<g id="edge14" class="edge">
<title>60&#45;&gt;0</title>
<path fill="none" stroke="grey" stroke-width="2" d="M1528.63,-431.36C1538,-404.79 1554,-352.74 1554,-307 1554,-307 1554,-307 1554,-161 1554,-69.32 1422.67,-35.57 1354.31,-24.22"/>
<polygon fill="grey" stroke="grey" stroke-width="2" points="1353.95,-20.31 1343.53,-22.24 1352.88,-27.23 1353.95,-20.31"/>
</g>
<!-- 61 -->
<g id="node62" class="node">
<title>61</title>
<path fill="none" stroke="#d8a456" stroke-width="2" d="M1804,-108C1804,-108 1774,-108 1774,-108 1768,-108 1762,-102 1762,-96 1762,-96 1762,-84 1762,-84 1762,-78 1768,-72 1774,-72 1774,-72 1804,-72 1804,-72 1810,-72 1816,-78 1816,-84 1816,-84 1816,-96 1816,-96 1816,-102 1810,-108 1804,-108"/>
<text text-anchor="middle" x="1789" y="-86.12" font-family="sans" font-size="10.00">setup</text>
</g>
<!-- 61&#45;&gt;0 -->
<g id="edge15" class="edge">
<title>61&#45;&gt;0</title>
<path fill="none" stroke="grey" stroke-width="2" d="M1761.12,-76.26C1756.79,-74.63 1752.32,-73.14 1748,-72 1606.73,-34.83 1432.6,-23.59 1354.84,-20.3"/>
<polygon fill="grey" stroke="grey" stroke-width="2" points="1355.04,-16.69 1344.91,-19.79 1354.76,-23.69 1355.04,-16.69"/>
</g>
<!-- 62&#45;&gt;0 -->
<g id="edge16" class="edge">
<title>62&#45;&gt;0</title>
<path fill="none" stroke="grey" stroke-width="2" d="M585.25,-431.41C595.5,-404.91 613,-352.96 613,-307 613,-307 613,-307 613,-161 613,-25.38 1123.35,-17.82 1273.14,-18.51"/>
<polygon fill="grey" stroke="grey" stroke-width="2" points="1273.06,-22.03 1283.09,-18.6 1273.11,-15.03 1273.06,-22.03"/>
</g>
<!-- 63&#45;&gt;0 -->
<g id="edge17" class="edge">
<title>63&#45;&gt;0</title>
<path fill="none" stroke="grey" stroke-width="2" d="M2045.15,-431.18C2078.02,-407.22 2129,-361.29 2129,-307 2129,-307 2129,-307 2129,-161 2129,-33.8 1981.49,-98.11 1857,-72 1672.05,-33.21 1445.58,-22.69 1354.64,-19.94"/>
<polygon fill="grey" stroke="grey" stroke-width="2" points="1354.82,-16.36 1344.73,-19.57 1354.62,-23.35 1354.82,-16.36"/>
</g>
</g>
</svg>
